<svg width="200" height="201" viewBox="0 0 200 201" fill="none" xmlns="http://www.w3.org/2000/svg">
<path d="M107.371 51.2935C106.719 51.3941 106.093 53.7939 104.833 55.0441C103.912 55.9464 102.762 55.89 102.151 57.0055C101.919 57.4222 101.994 58.1335 101.731 58.8166C101.217 60.1826 99.4064 60.3047 99.4064 61.7931C99.4001 63.4004 100.917 63.7074 102.229 64.8478C103.254 65.7658 103.354 66.3987 104.595 66.8436C105.654 67.2041 107.23 66.0258 108.649 66.4489C109.815 66.7968 110.93 67.0473 111.193 68.2442C111.425 69.3471 111.178 71.0577 109.765 70.8604C109.288 70.8071 107.224 70.1115 104.686 70.3809C101.625 70.7289 98.131 71.7281 97.7896 75.1404C97.6016 77.0484 99.9608 79.2981 102.239 78.8406C103.815 78.5303 103.069 76.6726 103.927 75.7701C105.052 74.6142 111.425 79.8057 117.35 79.8057C119.844 79.8057 121.699 79.176 123.541 77.2459C123.713 77.0986 123.923 76.7822 124.19 76.7633C124.44 76.7822 124.879 77.0296 125.023 77.1362C129.795 80.9711 133.401 88.6632 150.938 88.7541C153.404 88.7664 156.214 89.9447 158.507 92.0376C160.553 93.9301 161.75 96.8719 162.913 99.8579C164.667 104.338 167.813 108.697 172.582 113.547C172.842 113.807 176.768 116.859 177.081 117.087C177.131 117.119 177.419 117.808 177.319 118.193C177.203 121.101 176.78 129.557 183.084 129.94C184.626 130.018 184.221 128.934 184.221 128.188C184.218 126.715 183.949 125.252 184.726 123.745C185.788 121.671 182.473 120.715 182.57 116.232C182.639 112.889 179.832 113.459 178.406 110.912C177.585 109.436 176.855 108.653 176.909 106.848C177.228 96.6904 174.747 90.0166 173.509 88.378C172.544 87.1404 171.745 86.6486 172.629 86.0751C177.889 82.6005 179.083 79.3669 179.083 79.3669C181.881 72.7905 184.397 66.784 187.865 64.1398C188.564 63.5945 190.356 62.2568 191.456 61.7303C194.692 60.2044 196.397 59.2803 197.337 58.3652C198.825 56.9146 200 53.8911 198.574 52.0582C196.801 49.796 193.734 51.5913 192.38 52.3933C182.708 58.1335 181.283 68.2597 177.933 74.0751C175.261 78.7214 170.915 82.1336 167.03 82.4124C164.116 82.6286 160.976 82.0396 157.849 80.6672C150.245 77.3336 146.084 73.0286 145.104 72.2674C143.061 70.6913 127.201 55.1224 114.351 54.4864C114.351 54.4864 112.757 51.2938 112.356 51.2405C111.416 51.1213 110.454 53.1485 109.765 53.3837C109.116 53.5996 108.026 51.1869 107.371 51.2935ZM50.8045 144.214C49.595 144.186 48.5675 143.193 48.5675 141.965L48.5706 101.885H35.3611V146.066C35.3611 148.231 37.1155 149.998 39.268 149.998H62.3565C64.5245 149.998 66.2573 148.231 66.2573 146.066V101.885H53.0604L53.0478 141.965C53.0478 143.193 52.0201 144.186 50.8045 144.214ZM95.0324 101.885H75.0396C72.6741 101.885 70.7472 103.809 70.7472 106.199V149.998H83.9688V109.822C83.9783 108.59 84.9746 107.616 86.203 107.616C87.4374 107.616 88.4274 108.568 88.4555 109.787V149.998H101.624V109.787C101.64 108.568 102.63 107.616 103.861 107.616C105.083 107.616 106.092 108.59 106.102 109.821V149.998H119.324V106.199C119.324 103.809 117.394 101.885 115.028 101.885H95.0324ZM17.6836 109.906C17.693 108.568 16.6027 107.616 15.4465 107.616H13.2032V131.951H15.4465C16.6122 131.951 17.6933 131.024 17.6836 129.692V109.906ZM26.5474 137.907H13.2032V149.998H0V101.885H26.6322C29.0163 101.885 30.8774 103.821 30.8774 106.218V133.574C30.8774 135.974 28.9444 137.907 26.5474 137.907ZM164.633 139.239C161.979 139.239 159.751 141.532 159.751 144.312C159.751 147.1 161.979 149.375 164.717 149.375C167.434 149.375 169.633 147.1 169.633 144.312C169.633 141.526 167.434 139.239 164.717 139.239H164.633ZM170.58 144.296C170.58 147.564 167.96 150.221 164.717 150.221C161.44 150.221 158.808 147.583 158.808 144.296C158.808 141.072 161.44 138.377 164.62 138.377C167.96 138.377 170.58 140.99 170.58 144.296Z" fill="#788089"/>
<path d="M164.107 143.92C165.025 143.92 165.508 143.594 165.508 142.942C165.508 142.363 165.041 142.065 164.148 142.065H163.885V143.92H164.107ZM167.488 147.723H165.912L163.885 145.026V147.723H162.597V140.902H163.951C165.79 140.902 166.767 141.598 166.767 142.927C166.767 143.813 166.191 144.6 165.386 144.835L165.292 144.869L167.488 147.723ZM141.492 131.96V109.806C141.461 108.581 140.474 107.641 139.243 107.641C138.024 107.641 137.015 108.618 137.006 109.84V131.96H141.492ZM141.492 149.998V137.92H137.006V149.998H123.809V106.199C123.809 103.809 125.735 101.885 128.101 101.885H150.397C152.768 101.885 154.695 103.809 154.695 106.199V149.998L141.492 149.998Z" fill="#788089"/>
</svg>
