<svg width="200" height="26" viewBox="0 0 200 26" fill="none" xmlns="http://www.w3.org/2000/svg">
<path d="M136.044 11.2157H122.512L124.706 7.46676C125.62 5.91323 126.443 5.36437 127.815 5.36437C129.186 5.36437 129.644 6.46115 128.913 7.83236H142.72L144.092 5.36437C145.098 3.53547 145.098 1.52332 142.629 1.52332H118.306C116.112 1.52332 114.374 1.79774 113.094 3.90107L108.796 11.2157C107.608 13.319 107.699 15.0568 110.625 15.0568H124.615L122.329 19.0792C121.689 20.1769 120.866 20.9081 118.946 20.9081C117.3 20.9081 117.392 19.8114 118.123 18.7146H104.407L102.76 21.4579C101.755 23.1956 102.578 24.7501 104.955 24.7501H129.094C131.289 24.7501 133.209 23.7445 134.307 21.9156L138.421 15.0577C139.337 13.319 138.879 11.2157 136.044 11.2157Z" fill="#788089"/>
<path d="M194.789 6.04065C193.673 6.04065 192.768 6.91789 192.768 7.98955C192.768 9.08354 193.673 9.96078 194.789 9.96078C195.9 9.96078 196.799 9.08354 196.799 7.98955C196.799 6.91789 195.9 6.04065 194.789 6.04065ZM194.789 9.57751C193.878 9.57751 193.151 8.88353 193.151 7.98862C193.151 7.12255 193.877 6.42299 194.789 6.42299C195.689 6.42299 196.416 7.12255 196.416 7.98862C196.416 8.88353 195.689 9.57751 194.789 9.57751Z" fill="#788089"/>
<path d="M104.864 1.52332H84.198C81.3635 1.52332 77.7057 1.52332 75.5112 5.36437L66.3667 20.9081C65.0867 23.0115 66.1844 24.7492 68.5612 24.7492H92.6104C95.0793 24.7492 96.6337 24.0171 98.5538 20.9081L107.698 5.36437C108.886 3.35314 107.057 1.52332 104.864 1.52332ZM93.2504 7.46676L86.3934 19.0792C85.479 20.7258 84.6557 20.9081 82.5524 20.9081C80.449 20.9081 79.9002 20.1769 80.5411 19.0792L87.4902 7.46676C88.4967 5.72903 89.6847 5.36437 91.4224 5.36437C93.1601 5.36437 94.1648 5.91323 93.2504 7.46676Z" fill="#788089"/>
<path d="M68.6542 1.52332H42.137L30.7078 20.9081H5.4707L5.48329 24.7492H56.4017C59.785 24.7492 60.8818 23.1026 61.6139 21.8226L64.3563 17.068C65.0885 15.788 65.0885 14.3247 63.6252 13.5023C65.0912 13.5023 67.0997 12.4967 68.2886 10.3934L71.0319 5.72996C72.4041 3.44431 70.7575 1.52332 68.6542 1.52332ZM55.0305 17.1601L53.6583 19.3537C53.2927 20.0858 52.6527 20.9081 51.0982 20.9081H44.3315L47.8088 15.0568H54.3895C55.5784 15.0568 55.5784 16.1536 55.0305 17.1601ZM60.7906 7.46676L59.4185 9.66126C59.0529 10.3934 58.4129 11.2157 56.8584 11.2157H50.0917L53.5662 5.36437H60.1497C61.3395 5.36437 61.3395 6.46115 60.7906 7.46676Z" fill="#788089"/>
<path d="M195.821 7.47886C195.821 7.2956 195.739 7.10118 195.572 7.00722C195.399 6.91233 195.21 6.9021 195.022 6.9021H194.039V9.09473H194.372V8.08353H194.766L195.409 9.0938H195.793L195.11 8.08353C195.511 8.0733 195.821 7.91143 195.821 7.47886ZM194.739 7.8119H194.372V7.15141H194.954C195.238 7.15141 195.487 7.18955 195.487 7.47328C195.488 7.86771 195.055 7.8119 194.739 7.8119Z" fill="#788089"/>
<path d="M162.064 5.36168H196.353L196.342 1.52063H150.634L137.01 24.7465H168.83L171.116 20.9054H152.92L156.395 15.0541H174.591L176.785 11.213H158.681L162.064 5.36168Z" fill="#788089"/>
</svg>
