<svg width="200" height="20" viewBox="0 0 200 20" fill="none" xmlns="http://www.w3.org/2000/svg">
<g clip-path="url(#clip0_520_370)">
<path d="M0.00175782 19.8273C-0.00058594 13.2859 -0.00058594 6.74523 0.00175782 0.203833C5.85957 0.210073 11.719 0.207733 17.5807 0.206173C18.8025 0.213993 20.0018 0.742893 20.8612 1.60617C23.5682 4.35851 23.5884 9.32101 20.8244 12.0421C19.9252 12.946 18.6627 13.4327 17.3924 13.4406C15.0549 13.4773 12.7166 13.446 10.3783 13.4562C8.85019 11.8913 7.28067 10.3679 5.75019 8.80773C9.69551 8.80929 13.6424 8.79915 17.5877 8.81321C18.3721 8.13743 18.3127 6.98117 18.2104 6.04757C18.14 5.55929 17.9713 4.86399 17.3775 4.82101C13.1236 4.79601 8.86659 4.82493 4.61269 4.80539C4.59707 9.81087 4.60097 14.8195 4.61035 19.8249C3.07285 19.8249 1.53691 19.821 0.00175782 19.8273Z" fill="#788089"/>
<path d="M46.7422 0.201931C48.3876 0.211311 50.0352 0.205832 51.6828 0.205832C53.0704 4.07849 54.45 7.95349 55.8126 11.8324C57.1016 8.13161 58.3954 4.43553 59.675 0.730832C59.7812 0.522232 59.8008 0.109731 60.1476 0.207391C61.6796 0.199591 63.2126 0.213651 64.7454 0.201931C66.1102 4.06911 67.479 7.93553 68.8516 11.8035C70.271 7.94411 71.654 4.07223 73.0484 0.207391C74.6836 0.203491 76.3204 0.211311 77.9546 0.201931C75.6118 6.74489 73.2476 13.2777 70.9024 19.8222C69.561 19.8246 68.221 19.8285 66.8796 19.8207C65.3852 15.6316 63.879 11.4457 62.3774 7.25817C60.8594 11.4402 59.3704 15.6347 57.8648 19.8222C56.5132 19.8246 55.1626 19.8207 53.811 19.8246C51.4484 13.2855 49.1016 6.74099 46.7422 0.201931Z" fill="#788089"/>
<path d="M78.8398 19.8269C78.8422 13.2855 78.8398 6.74487 78.8422 0.203468C85.4742 0.207368 92.1094 0.211289 98.7422 0.201909C98.7382 1.73863 98.7344 3.27379 98.7398 4.81285C93.643 4.80737 88.5468 4.81675 83.4492 4.80737C83.4438 5.76597 83.4454 6.72691 83.4414 7.68785C88.2016 7.69409 92.9594 7.69019 97.7172 7.69019C97.7148 9.24097 97.7126 10.7917 97.7148 12.3425C92.9594 12.3425 88.2032 12.3386 83.4454 12.3425C83.4454 13.3011 83.4414 14.2597 83.4468 15.2191C88.5468 15.2214 93.643 15.2175 98.7422 15.2214C98.7382 16.7566 98.7368 18.2871 98.7422 19.8222C92.107 19.8269 85.4742 19.8167 78.8398 19.8269Z" fill="#788089"/>
<path d="M100.643 0.205833C106.356 0.209733 112.071 0.207393 117.784 0.205833C118.801 0.180053 119.86 0.170672 120.804 0.613652C122.52 1.38161 123.62 3.13473 124.014 4.92615C124.479 7.15895 124.163 9.67223 122.7 11.4887C121.881 12.5722 120.606 13.2918 119.25 13.3949C118.471 13.4355 117.689 13.3988 116.913 13.4105C118.836 15.5472 120.762 17.684 122.684 19.8222C120.567 19.8308 118.447 19.8168 116.329 19.8246C113.061 16.1449 109.774 12.4832 106.504 8.80739C110.46 8.79881 114.416 8.81677 118.373 8.79723C119.08 8.83239 119.473 8.09803 119.532 7.48473C119.6 6.71365 119.639 5.84255 119.172 5.18239C118.946 4.85583 118.526 4.79881 118.163 4.80739C113.857 4.81521 109.555 4.80895 105.253 4.81287C105.24 9.81911 105.25 14.8246 105.246 19.8285C103.711 19.8191 102.174 19.8246 100.639 19.8222C100.651 13.284 100.641 6.74489 100.643 0.205833Z" fill="#788089"/>
<path d="M173.313 0.211311C179.936 0.213651 186.559 0.213651 193.184 0.211311C193.192 1.74099 193.182 3.26989 193.188 4.79567C188.094 4.79881 182.998 4.78943 177.903 4.79881C177.896 5.75973 177.895 6.72303 177.901 7.68553C181.362 7.69177 184.821 7.69567 188.282 7.68553C189.564 7.69021 190.848 7.69177 192.133 7.68787C192.133 9.23865 192.131 10.7894 192.133 12.3402C188.145 12.3496 184.154 12.3207 180.166 12.3543C179.411 12.348 178.654 12.3387 177.901 12.3402C177.893 13.3152 177.871 14.2894 177.865 15.266C182.963 15.2363 188.063 15.2449 193.161 15.2566C193.188 16.7801 193.137 18.3035 193.197 19.8246C186.564 19.8246 179.932 19.8222 173.299 19.8246C173.346 13.2871 173.293 6.75037 173.313 0.211311Z" fill="#788089"/>
<path d="M130.096 5.83237C130.034 6.88159 130.082 7.93393 130.077 8.98629C134.68 8.99643 139.284 8.99643 143.888 8.98471C143.849 7.87143 143.971 6.74801 143.819 5.63941C143.755 5.10815 143.268 4.72301 142.734 4.79565C138.82 4.80503 134.904 4.77769 130.99 4.81051C130.436 4.76597 130.104 5.34253 130.096 5.83237ZM125.656 4.50659C126.205 2.30893 128.09 0.315187 130.447 0.215187C134.659 0.199567 138.871 0.187846 143.082 0.191746C143.479 0.195646 143.877 0.201907 144.268 0.293307C146.771 0.948007 148.492 3.46129 148.48 6.00269C148.479 10.6058 148.479 15.2113 148.479 19.8152C146.955 19.8207 145.431 19.8074 143.91 19.8269C143.862 17.748 143.901 15.6706 143.885 13.5902C139.281 13.5722 134.678 13.5925 130.077 13.5808C130.063 15.6605 130.077 17.7386 130.069 19.8191C128.538 19.8152 127.008 19.8191 125.477 19.8167C125.471 18.1433 125.496 16.4691 125.457 14.7972C125.471 12.366 125.461 9.93393 125.463 7.50035C125.477 6.50035 125.385 5.48315 125.656 4.50659Z" fill="#788089"/>
<path d="M154.845 4.79883C154.835 8.27773 154.835 11.7566 154.845 15.2348C158.304 15.227 161.761 15.2309 165.22 15.2348C165.783 15.2293 166.433 15.1551 166.813 14.684C167.148 14.2988 167.119 13.7527 167.135 13.2762C167.124 11.0395 167.127 8.80507 167.135 6.56913C167.119 6.14883 167.127 5.67617 166.826 5.34805C166.446 4.85819 165.785 4.78711 165.212 4.79179C161.755 4.80117 158.3 4.78945 154.845 4.79883ZM150.21 0.194134C152.976 0.187894 155.742 0.195693 158.507 0.187893C160.31 0.233193 162.113 0.207413 163.915 0.213673C165.119 0.221473 166.364 0.109754 167.525 0.519914C169.806 1.25819 171.601 3.40897 171.728 5.83085C171.808 7.68789 171.736 9.54883 171.76 11.409C171.731 12.8598 171.91 14.3699 171.4 15.7645C171.013 16.977 170.101 17.8973 169.187 18.7332C168.843 18.9887 168.46 19.1941 168.07 19.3559C166.249 20.0066 164.306 19.784 162.415 19.8168C158.347 19.8105 154.278 19.827 150.21 19.8074C150.204 13.2699 150.203 6.73085 150.21 0.194134Z" fill="#788089"/>
<path d="M29.5225 4.94173C28.8475 5.17219 28.5709 5.90267 28.5929 6.56517C28.5881 8.79719 28.5951 11.03 28.5897 13.2644C28.5921 13.8386 28.6561 14.5198 29.1679 14.8816C29.6287 15.1995 30.2233 15.2136 30.7647 15.223C34.0585 15.2175 37.3499 15.2214 40.6429 15.2214C41.2117 15.2136 41.8475 15.1589 42.2867 14.7527C42.6725 14.3636 42.6937 13.787 42.6787 13.2761C42.6647 10.9808 42.6773 8.68391 42.6725 6.38939C42.6851 5.91439 42.5249 5.39877 42.1131 5.12923C41.6897 4.81283 41.1389 4.81283 40.6367 4.80501C37.5311 4.81673 34.4281 4.81049 31.3257 4.80891C30.7249 4.82063 30.1037 4.74641 29.5225 4.94173ZM28.8147 0.358127C29.6991 0.144847 30.6139 0.211267 31.5147 0.207347C34.3655 0.207347 37.2179 0.207347 40.0679 0.207347C40.8695 0.211267 41.6835 0.156567 42.4709 0.351887C44.0217 0.695627 45.4007 1.67455 46.3085 2.96751C47.0335 4.01829 47.3367 5.30735 47.3273 6.57063C47.3147 8.99251 47.3381 11.4144 47.3147 13.8363C47.2881 15.3816 46.6561 16.912 45.5273 17.9792C44.3451 19.1667 42.6749 19.8308 41.0015 19.8245C37.4031 19.8222 33.8053 19.8245 30.2093 19.8245C28.5429 19.8167 26.8999 19.1277 25.7359 17.9355C24.5859 16.8308 23.9749 15.2363 23.9859 13.6511C23.9951 11.1113 23.9709 8.57219 23.9967 6.03391C24.0389 3.31907 26.2085 0.928447 28.8147 0.358127Z" fill="#788089"/>
<path d="M197.429 17.4012C197.429 17.2293 197.431 16.8847 197.431 16.7137C197.703 16.7918 198.109 16.7644 198.107 17.1512C197.945 17.366 197.658 17.3441 197.429 17.4012ZM198.287 17.8152C198.55 17.5199 198.839 17.1137 198.597 16.7097C198.265 16.0629 197.408 16.3519 196.829 16.2816C196.816 17.1058 196.821 17.9301 196.821 18.7566C196.968 18.7582 197.263 18.7582 197.412 18.7582C197.42 18.4051 197.443 18.0535 197.48 17.7035C197.722 18.0261 197.931 18.373 198.082 18.7527C198.25 18.7527 198.587 18.7566 198.757 18.7582C198.597 18.4418 198.441 18.1293 198.287 17.8152Z" fill="#788089"/>
<path d="M199.386 17.5457C199.452 18.7972 197.903 19.7347 196.841 19.0355C195.624 18.3972 195.744 16.366 197.047 15.9027C198.126 15.4105 199.489 16.3636 199.386 17.5457ZM199.983 17.3222C199.933 15.8324 198.226 14.7871 196.862 15.3582C195.901 15.6996 195.278 16.7449 195.395 17.748C195.486 18.8496 196.47 19.7855 197.576 19.8222C198.917 19.9238 200.153 18.6683 199.983 17.3222Z" fill="#788089"/>
<path d="M197.429 17.4012C197.429 17.2293 197.431 16.8847 197.431 16.7137C197.703 16.7918 198.109 16.7644 198.107 17.1512C197.945 17.366 197.658 17.3441 197.429 17.4012ZM198.287 17.8152C198.55 17.5199 198.839 17.1137 198.597 16.7097C198.265 16.0629 197.408 16.3519 196.829 16.2816C196.816 17.1058 196.821 17.9301 196.821 18.7566C196.968 18.7582 197.263 18.7582 197.412 18.7582C197.42 18.4051 197.443 18.0535 197.48 17.7035C197.722 18.0261 197.931 18.373 198.082 18.7527C198.25 18.7527 198.587 18.7566 198.757 18.7582C198.597 18.4418 198.441 18.1293 198.287 17.8152Z" fill="white"/>
<path d="M197.429 17.4012C197.429 17.2293 197.431 16.8847 197.431 16.7137C197.703 16.7918 198.109 16.7644 198.107 17.1512C197.945 17.366 197.658 17.3441 197.429 17.4012ZM198.287 17.8152C198.55 17.5199 198.839 17.1137 198.597 16.7097C198.265 16.0629 197.408 16.3519 196.829 16.2816C196.816 17.1058 196.821 17.9301 196.821 18.7566C196.968 18.7582 197.263 18.7582 197.412 18.7582C197.42 18.4051 197.443 18.0535 197.48 17.7035C197.722 18.0261 197.931 18.373 198.082 18.7527C198.25 18.7527 198.587 18.7566 198.757 18.7582C198.597 18.4418 198.441 18.1293 198.287 17.8152Z" fill="#788089"/>
</g>
<defs>
<clipPath id="clip0_520_370">
<rect width="200" height="19.64" fill="white" transform="translate(0 0.188477)"/>
</clipPath>
</defs>
</svg>
