<svg width="200" height="201" viewBox="0 0 200 201" fill="none" xmlns="http://www.w3.org/2000/svg">
<g clip-path="url(#clip0_520_338)">
<path d="M91.1044 32.7385L65.8283 74.7631L83.8038 72.3398L25.2148 176.634L162.27 45.3459L144.693 46.7263L167.178 23.26L91.1044 32.7385Z" fill="#788089"/>
<path d="M91.3801 66.2048L73.2206 68.5974L92.7298 35.8367L156.626 27.6158L133.742 51.0514L151.472 49.0882L39.0488 157.585L91.3801 66.2048Z" fill="white"/>
<path d="M93.0976 63.1679L74.9994 65.4992L92.7295 35.8366L151.963 28.1986L129.325 51.5422L146.779 49.579L43.9258 148.965L93.0976 63.1679Z" fill="#788089"/>
<path d="M154.11 108.107C161.318 107.186 167.239 106.174 171.226 99.2416L190.582 64.4563L50.0301 82.1864C39.7847 83.4747 35.1834 86.7262 32.3614 91.7569L13.4043 125.867L154.11 108.107Z" fill="#788089"/>
<path d="M154.11 108.107C161.318 107.186 167.239 106.174 171.226 99.2416L190.582 64.4563L50.0301 82.1864C39.7847 83.4747 35.1834 86.7262 32.3614 91.7569L13.4043 125.867L154.11 108.107Z" stroke="#788089" stroke-width="13.3187"/>
<path d="M154.11 108.107C161.318 107.186 167.239 106.174 171.226 99.2416L190.582 64.4563L50.0301 82.1864C39.7847 83.4747 35.1834 86.7262 32.3614 91.7569L13.4043 125.867L154.11 108.107Z" fill="white"/>
<path d="M154.11 108.107C161.318 107.186 167.239 106.174 171.226 99.2416L190.582 64.4563L50.0301 82.1864C39.7847 83.4747 35.1834 86.7262 32.3614 91.7569L13.4043 125.867L154.11 108.107Z" stroke="#788089" stroke-width="7.2615"/>
<path d="M112.055 89.8551L113.865 86.6036L107.883 87.3705L97.8528 105.407L95.5215 109.579L96.9019 109.395L101.933 108.751L104.264 104.579L108.865 96.3275C110.368 93.6281 111.442 92.9226 114.049 92.5852L115.859 92.3398L119.54 85.6833C117.178 86.0514 114.018 87.5852 112.055 89.8551Z" fill="#788089"/>
<path d="M139.354 100.438L138.066 100.591C136.747 100.745 136.287 99.7324 137.299 97.8919L142.453 88.5974C143.219 87.2171 144.354 86.3582 145.551 86.2048L147.391 85.9594L139.354 100.438ZM153.741 74.579L149.723 81.849L145.336 82.4011C141.256 82.9226 138.802 84.5484 136.41 88.8122L131.41 97.8612C130.06 100.254 130.091 101.45 130.428 102.554C131.042 104.548 133.066 104.947 136.44 104.518L143.557 103.628L160.152 73.7815L153.741 74.579Z" fill="#788089"/>
<path d="M34.2333 117.432C31.1965 117.8 29.6321 117.462 28.8959 116.021C28.129 114.518 28.5585 112.892 29.9082 110.499L38.5585 95.0084C40.491 91.5115 41.718 90.1618 44.4174 88.8735C46.4112 87.9225 48.9879 87.4931 51.3806 87.217C55.2763 86.7569 57.1168 87.309 57.5462 89.0575C57.853 90.2538 57.3008 91.6649 55.583 94.7324L54.4174 96.8183L47.6382 97.6771L50.9818 91.6649L48.6812 91.941C47.0247 92.1557 46.1965 92.6158 45.1229 94.5483L34.8161 113.076L39.3867 112.493L43.0677 105.806L40.7977 106.082L42.8223 102.432L51.9941 101.266L43.7119 116.205L34.2333 117.432Z" fill="#788089"/>
<path d="M72.0548 112.646C69.5395 112.953 68.0978 112.094 67.699 110.285C67.4536 109.15 67.8524 108.076 69.2021 105.653L81.4106 83.6894L87.9444 82.8612L83.7419 90.4379L86.5947 90.0698L84.2941 94.2416L81.4413 94.6097L73.7726 108.413L77.1775 107.984L74.7542 112.34L72.0548 112.646Z" fill="#788089"/>
<path d="M58.0675 110.745L56.6258 110.929C55.3068 111.082 54.816 110.039 55.8283 108.229C56.5952 106.91 57.6688 105.898 59.5706 105.039L61.7792 104.15L58.0675 110.745ZM72.1473 94.3336C71.9326 92.4624 69.816 91.7875 66.4725 92.217C61.043 92.8918 58.3129 93.9041 55.3375 99.2415L54.8774 100.07L60.5829 99.3642L60.8896 98.8121C61.7792 97.217 62.7301 96.6648 64.1412 96.4808L66.1044 96.2354L64.1412 99.855C64.1412 99.855 60.4602 101.266 56.5952 102.861C52.4847 104.579 51.1044 106.665 50.1841 108.383C49.2025 110.162 48.9571 112.002 49.8467 113.444C50.5522 114.61 51.8405 115.162 55.2761 114.732L62.178 113.873L70.9817 98.0145C71.8712 96.2967 72.2393 95.3152 72.1473 94.3336Z" fill="#788089"/>
<path d="M167.299 79.5176C164.477 79.8857 162.391 80.2845 160.52 81.3581C157.913 82.8305 156.655 84.7937 154.63 88.4133L150.489 95.898C149.14 98.2906 148.68 99.3336 148.802 100.469C149.048 102.524 151.041 103.168 154.477 102.738C157.483 102.37 159.722 101.726 161.226 100.929C163.986 99.4563 165.091 97.4931 167.115 93.8734L160.612 94.7017L159.999 95.8366C159.109 97.4317 158.035 98.1066 156.808 98.2599L155.06 98.4747L158.311 92.6158L162.023 92.1556L168.526 91.3274L171.226 86.4808C172.575 84.0882 173.097 82.9532 172.974 81.7875C172.729 79.7323 170.704 79.0882 167.299 79.5176ZM160.336 88.9655L161.87 86.174C162.759 84.579 163.864 83.8734 165.06 83.7201L166.808 83.5053L164.048 88.4747L160.336 88.9655Z" fill="#788089"/>
<path d="M120.399 102.861L118.957 103.045C117.638 103.199 117.147 102.156 118.16 100.346C118.927 99.0269 120 98.0146 121.902 97.1557L124.111 96.2662L120.399 102.861ZM134.479 86.4809C134.264 84.6097 132.147 83.9349 128.804 84.3643C123.344 85.0392 120.644 86.0514 117.669 91.3889L117.209 92.2171L122.914 91.5116L123.221 90.9594C124.111 89.3643 125.062 88.8122 126.473 88.6281L128.436 88.3827L126.473 92.0024C126.473 92.0024 122.792 93.4134 118.927 95.0085C114.816 96.7263 113.436 98.8122 112.485 100.53C111.503 102.309 111.258 104.15 112.147 105.622C112.853 106.788 114.141 107.34 117.577 106.91L124.479 106.051L133.282 90.1926C134.203 88.4134 134.571 87.4625 134.479 86.4809Z" fill="#788089"/>
<path d="M96.6553 102.83C94.6308 106.481 93.4958 108.321 90.8885 109.763C89.048 110.806 86.6247 111.297 84.0786 111.603C80.6737 112.033 78.6492 111.358 78.4038 109.334C78.2811 108.199 78.7412 107.156 80.0909 104.763L84.232 97.2783C86.2566 93.628 87.4836 91.6955 90.0602 90.2538C91.9007 89.2108 94.324 88.7201 96.87 88.4133C100.275 87.9839 102.299 88.6587 102.545 90.6832C102.668 91.8182 102.146 92.9532 100.796 95.3765L96.6553 102.83ZM91.4406 95.1004L84.6001 107.37L86.3486 107.156C87.5449 107.002 88.6492 106.327 89.5388 104.732L96.3793 92.4317L94.6308 92.6464C93.4038 92.7998 92.2995 93.5053 91.4406 95.1004Z" fill="#788089"/>
<path d="M175.336 77.4318H175.673V76.6956H175.949C176.133 76.6956 176.256 76.7263 176.318 76.757C176.44 76.8183 176.502 76.9717 176.502 77.1864V77.3398V77.4011C176.502 77.4011 176.502 77.4011 176.502 77.4318C176.502 77.4318 176.502 77.4318 176.502 77.4625H176.808V77.4318C176.808 77.4318 176.808 77.3705 176.778 77.3398C176.778 77.2784 176.778 77.2478 176.778 77.1864V77.033C176.778 76.941 176.747 76.849 176.686 76.7263C176.624 76.6343 176.502 76.5729 176.348 76.5422C176.471 76.5116 176.563 76.4809 176.624 76.4502C176.747 76.3582 176.808 76.2355 176.808 76.0821C176.808 75.8367 176.716 75.6833 176.502 75.5913C176.379 75.5606 176.225 75.53 175.98 75.53H175.305V77.4318H175.336ZM176.287 76.4195C176.225 76.4502 176.103 76.4502 175.98 76.4502H175.673V75.7754H175.949C176.133 75.7754 176.256 75.806 176.348 75.8367C176.44 75.8981 176.471 75.9901 176.471 76.1128C176.502 76.2662 176.41 76.3582 176.287 76.4195ZM177.268 75.2539C176.931 74.9165 176.532 74.7324 176.041 74.7324C175.551 74.7324 175.152 74.8858 174.814 75.2539C174.477 75.5913 174.293 75.9901 174.293 76.4809C174.293 76.9717 174.446 77.3705 174.784 77.7079C175.121 78.0453 175.52 78.2294 176.011 78.2294C176.502 78.2294 176.9 78.0453 177.238 77.7079C177.575 77.3705 177.759 76.941 177.759 76.4809C177.79 76.0208 177.606 75.622 177.268 75.2539ZM177.084 75.4379C177.36 75.7447 177.514 76.0821 177.514 76.5116C177.514 76.941 177.36 77.2784 177.084 77.5852C176.808 77.8919 176.44 78.0146 176.011 78.0146C175.581 78.0146 175.244 77.8613 174.937 77.5852C174.661 77.2784 174.508 76.941 174.508 76.5116C174.508 76.1128 174.661 75.7447 174.937 75.4379C175.244 75.1312 175.581 75.0085 176.011 75.0085C176.44 75.0085 176.808 75.1312 177.084 75.4379Z" fill="#788089"/>
<path d="M88.3429 124.211L87.1159 126.45C86.8091 126.972 86.5944 127.401 87.1772 127.309C87.3613 127.278 87.484 127.248 87.6067 127.186L87.1466 127.984C86.8705 128.076 86.4717 128.199 85.9809 128.26C84.4472 128.444 84.9686 127.555 85.3981 126.788L86.7478 124.364L86.1036 124.456L86.4717 123.782L87.1159 123.689L87.6374 122.769L89.4165 122.278L88.7416 123.475L89.5699 123.352L89.2018 124.027L88.3429 124.211Z" fill="#788089"/>
<path d="M92.8821 127.34L91.2564 127.554L92.8821 124.64C93.1275 124.18 93.4956 123.567 92.7901 123.659C92.6367 123.689 92.514 123.72 92.3913 123.781C91.8699 124.027 91.6858 124.334 91.5324 124.579L89.784 127.738L88.1582 127.953L91.8085 121.389L93.4343 121.174L92.0846 123.628C92.4527 123.383 93.2196 122.923 94.0785 122.8C94.3239 122.769 94.5692 122.769 94.7533 122.831C95.3361 123.045 94.968 123.689 94.692 124.211L92.8821 127.34Z" fill="#788089"/>
<path d="M98.9879 121.573L97.3622 121.788L98.0063 120.622L99.6321 120.407L98.9879 121.573ZM96.0125 126.941L94.3867 127.156L96.9634 122.493L98.5892 122.278L96.0125 126.941Z" fill="#788089"/>
<path d="M99.1101 126.542L97.4844 126.757L100.061 122.094L101.687 121.88L101.227 122.708C101.411 122.493 101.595 122.309 101.932 122.094C102.3 121.849 102.699 121.665 103.006 121.634C103.19 121.603 103.282 121.634 103.374 121.665L102.699 122.892C102.576 122.83 102.392 122.738 102.086 122.769C102.024 122.769 101.84 122.8 101.595 122.923C100.981 123.199 100.767 123.597 100.583 123.904L99.1101 126.542Z" fill="#788089"/>
<path d="M104.141 124.15C103.804 124.119 103.436 124.058 103.282 123.843C103.098 123.597 103.221 123.26 103.374 122.953C103.528 122.677 103.712 122.432 103.988 122.186C104.724 121.512 105.614 121.266 106.319 121.174C106.595 121.143 106.902 121.113 107.147 121.143C107.362 121.143 107.577 121.205 107.73 121.297C108.068 121.542 107.822 122.033 107.669 122.309L106.258 122.462C106.381 122.248 106.626 121.757 105.982 121.849C105.552 121.91 105.154 122.156 105 122.462C104.785 122.831 105.123 122.892 105.522 122.953L105.89 122.984C106.227 123.015 106.595 123.076 106.779 123.26C107.025 123.505 106.871 123.935 106.718 124.242C106.565 124.518 106.381 124.763 106.104 125.008C105.43 125.653 104.571 125.959 103.589 126.082C103.282 126.113 103.006 126.143 102.73 126.113C102.516 126.113 102.301 126.051 102.147 125.959C101.749 125.653 102.117 125.07 102.239 124.824L103.712 124.671C103.62 124.824 103.466 125.07 103.558 125.254C103.62 125.346 103.773 125.407 104.08 125.346C104.601 125.285 104.939 124.978 105.092 124.702C105.338 124.242 105 124.211 104.632 124.15H104.141Z" fill="#788089"/>
<path d="M111.042 121.297L109.815 123.536C109.508 124.057 109.294 124.487 109.876 124.395C110.061 124.364 110.183 124.334 110.306 124.303L109.846 125.1C109.57 125.192 109.171 125.315 108.68 125.376C107.146 125.561 107.668 124.671 108.097 123.904L109.447 121.481L108.803 121.573L109.171 120.898L109.815 120.806L110.337 119.886L112.116 119.395L111.441 120.591L112.269 120.469L111.901 121.143L111.042 121.297Z" fill="#788089"/>
<path d="M118.71 121.358C118.833 121.113 118.986 120.837 118.986 120.622C118.956 120.407 118.771 120.315 118.495 120.377C118.342 120.407 118.189 120.438 118.066 120.53C117.637 120.745 117.299 121.082 116.716 122.125C116.594 122.309 116.379 122.738 116.287 123.045C116.225 123.199 116.011 123.751 116.686 123.689C116.747 123.689 116.9 123.659 117.084 123.567C117.667 123.321 117.913 122.892 118.097 122.524L118.71 121.358ZM119.692 119.579L121.318 119.364L117.667 125.929L116.041 126.143L117.391 123.689C117.023 123.935 116.379 124.395 115.52 124.487C113.986 124.671 114.508 123.475 114.661 123.137C114.753 122.892 114.876 122.646 115.029 122.37C115.275 121.91 115.489 121.604 115.673 121.389C115.919 121.082 116.164 120.745 116.502 120.469C116.87 120.162 117.544 119.763 118.342 119.64C119.262 119.518 119.385 119.947 119.416 120.1L119.692 119.579Z" fill="#788089"/>
<path d="M124.968 123.229L123.343 123.444L123.649 122.923C123.373 123.107 122.545 123.628 121.625 123.751C121.318 123.781 121.134 123.781 120.981 123.72C120.398 123.536 120.735 122.892 121.011 122.401L122.79 119.18L124.416 118.966L122.852 121.788C122.545 122.34 122.208 122.953 122.944 122.861C123.22 122.831 123.527 122.708 123.741 122.524C123.987 122.34 124.11 122.125 124.232 121.941L125.981 118.782L127.606 118.567L124.968 123.229Z" fill="#788089"/>
<path d="M131.257 119.763C131.502 119.334 131.87 118.567 131.134 118.659C130.306 118.751 129.723 119.702 129.569 119.978L131.257 119.763ZM132.085 120.959C131.901 121.266 131.533 121.818 130.643 122.309C129.938 122.677 129.14 122.831 128.741 122.892C127.852 123.015 127.361 122.861 127.177 122.616C126.809 122.156 127.33 121.205 127.545 120.837C127.882 120.223 128.956 118.321 131.533 117.984C131.901 117.923 132.238 117.923 132.514 117.984C133.22 118.137 133.189 118.628 132.974 119.211C132.821 119.64 132.606 120.008 132.453 120.223L129.14 120.653C128.741 121.358 128.25 122.278 129.14 122.186C129.385 122.156 129.661 122.033 129.876 121.88C130.214 121.634 130.398 121.327 130.49 121.174L132.085 120.959Z" fill="#788089"/>
<path d="M137.3 121.665L135.675 121.88L137.239 119.027C137.331 118.843 137.423 118.689 137.484 118.536C137.546 118.383 137.791 117.923 137.147 117.984C136.994 118.015 136.84 118.076 136.718 118.107C136.196 118.352 136.012 118.659 135.859 118.904L134.11 122.064L132.484 122.278L135.061 117.616L136.687 117.401L136.38 117.923C136.902 117.585 137.607 117.186 138.405 117.094C139.079 117.002 139.264 117.217 139.325 117.34C139.478 117.616 139.233 118.045 139.049 118.383L137.3 121.665Z" fill="#788089"/>
<path d="M144.416 119.211C144.324 119.364 144.14 119.702 143.803 120.039C142.944 120.898 141.839 121.205 140.981 121.327C140.551 121.389 139.784 121.45 139.477 121.021C139.171 120.53 139.569 119.732 139.876 119.211C140.091 118.843 140.582 117.953 141.563 117.278C142.514 116.604 143.434 116.481 143.833 116.419C144.754 116.297 145.122 116.45 145.275 116.604C145.674 116.972 145.306 117.616 145.152 117.923L143.557 118.137C143.864 117.554 143.956 117.094 143.373 117.156C142.698 117.248 142.115 117.923 141.471 119.058C141.318 119.334 140.888 120.162 140.95 120.438C140.981 120.561 141.073 120.683 141.379 120.653C141.625 120.622 141.901 120.469 142.146 120.284C142.3 120.162 142.545 119.916 142.79 119.487L144.416 119.211Z" fill="#788089"/>
<path d="M149.385 120.131L147.76 120.346L149.385 117.432C149.631 116.972 149.968 116.358 149.293 116.45C149.14 116.481 149.017 116.511 148.895 116.573C148.373 116.818 148.189 117.125 148.005 117.37L146.257 120.53L144.631 120.745L148.281 114.18L149.907 113.965L148.557 116.419C148.925 116.174 149.692 115.714 150.582 115.591C150.827 115.561 151.073 115.561 151.257 115.622C151.839 115.837 151.471 116.481 151.195 117.002L149.385 120.131Z" fill="#788089"/>
<path d="M155.643 116.665C155.889 116.235 156.257 115.469 155.521 115.561C154.692 115.653 154.11 116.604 153.956 116.88L155.643 116.665ZM156.471 117.831C156.287 118.137 155.919 118.689 155.03 119.18C154.324 119.548 153.527 119.702 153.128 119.763C152.238 119.886 151.748 119.732 151.564 119.487C151.195 119.027 151.717 118.076 151.932 117.708C152.269 117.094 153.343 115.193 155.919 114.855C156.287 114.824 156.625 114.794 156.901 114.855C157.606 115.008 157.576 115.499 157.361 116.082C157.208 116.512 156.993 116.88 156.84 117.094L153.527 117.524C153.128 118.229 152.637 119.15 153.527 119.058C153.772 119.027 154.048 118.904 154.263 118.751C154.6 118.505 154.784 118.199 154.876 118.045L156.471 117.831Z" fill="#788089"/>
<path d="M158.526 118.965L156.9 119.18L159.477 114.518L161.103 114.303L160.643 115.131C160.827 114.916 161.011 114.732 161.348 114.518C161.716 114.272 162.115 114.088 162.422 114.058C162.606 114.027 162.698 114.058 162.79 114.088L162.115 115.315C161.992 115.254 161.808 115.162 161.502 115.192C161.44 115.192 161.256 115.223 161.011 115.346C160.397 115.622 160.183 116.021 159.999 116.327L158.526 118.965Z" fill="#788089"/>
</g>
<defs>
<clipPath id="clip0_520_338">
<rect width="200" height="200" fill="white" transform="translate(0 0.00842285)"/>
</clipPath>
</defs>
</svg>
