<svg width="200" height="112" viewBox="0 0 200 112" fill="none" xmlns="http://www.w3.org/2000/svg">
<mask id="mask0_520_388" style="mask-type:luminance" maskUnits="userSpaceOnUse" x="0" y="1" width="200" height="110">
<path d="M0.666016 110.443H199.334V1.57375H0.666016V110.443Z" fill="white"/>
</mask>
<g mask="url(#mask0_520_388)">
<path d="M0.666016 109.838H5.11828V100.998C5.11828 99.4237 5.11828 97.4815 5.92466 96.3437C6.72699 95.1068 8.16797 94.7046 8.97232 94.7046C12.7233 94.7046 12.7233 99.1266 12.7233 100.663V109.838H17.1735V99.7935C17.1735 98.3505 17.1735 95.2402 15.4678 93.199C13.9298 91.3215 11.4824 90.6141 9.87773 90.6141C7.06248 90.6141 5.52248 92.1602 4.78683 92.8635V91.2508H0.666016V109.838Z" fill="#788089"/>
<path fill-rule="evenodd" clip-rule="evenodd" d="M37.4235 102.539C37.5508 101.939 37.6903 101.166 37.6903 100.297C37.6903 95.6128 33.9716 90.5138 28.0784 90.5138C22.3509 90.5138 18.3008 95.342 18.3008 100.597C18.3008 106.019 22.5873 110.443 28.1127 110.443C32.466 110.443 36.0128 107.333 37.086 103.982H32.3952C31.5606 105.522 30.0893 106.356 28.1127 106.356C24.9317 106.356 23.1896 103.745 22.9875 102.539H37.4235ZM22.8541 98.9555C23.6908 95.5057 26.4717 94.6023 28.1127 94.6023C30.3237 94.6023 32.6317 95.9745 33.1349 98.9555H22.8541Z" fill="#788089"/>
<path d="M43.4027 109.838H46.1432L49.6618 97.7847H49.7264L53.2127 109.838H55.9572L62.7538 91.2508H58.0004L54.5809 102.605H54.5162L51.4989 91.2508H47.954L44.9064 102.605H44.8397L41.4585 91.2508H36.7031L43.4027 109.838Z" fill="#788089"/>
<path fill-rule="evenodd" clip-rule="evenodd" d="M71.375 109.838H75.4574V107.595C76.5589 108.835 78.1393 110.442 81.7225 110.442C88.5171 110.442 90.9625 104.181 90.9625 100.46C90.9625 95.5433 87.2803 90.6141 81.6215 90.6141C79.5439 90.6141 77.3652 91.3882 75.8252 92.9302V85.0584H71.375V109.838ZM75.5564 100.297C75.5564 97.5845 77.6664 94.7046 81.0819 94.7046C83.8971 94.7046 86.5103 96.8772 86.5103 100.499C86.5103 104.11 84.0649 106.358 81.1506 106.358C78.5394 106.358 75.5564 104.416 75.5564 100.297Z" fill="#788089"/>
<path fill-rule="evenodd" clip-rule="evenodd" d="M111.751 91.2516H107.662V93.602H107.596C107.46 93.3312 105.215 90.6129 101.436 90.6129C96.2802 90.6129 92.125 94.7338 92.125 100.431C92.125 106.623 96.3792 110.443 101.169 110.443C103.509 110.443 106.258 109.2 107.662 107.535V109.839H111.751V91.2516ZM107.533 100.5C107.533 103.948 105.185 106.357 102.103 106.357C98.9236 106.357 96.5773 103.778 96.5773 100.631C96.5773 97.8522 98.4527 94.7055 102.103 94.7055C104.75 94.7055 107.533 96.6456 107.533 100.5Z" fill="#788089"/>
<path d="M118.571 85.0592H114.119V109.839H118.571V85.0592Z" fill="#788089"/>
<path fill-rule="evenodd" clip-rule="evenodd" d="M139.532 91.2516H135.448V93.602H135.379C135.244 93.3312 132.998 90.6129 129.219 90.6129C124.057 90.6129 119.908 94.7338 119.908 100.431C119.908 106.623 124.162 110.443 128.95 110.443C131.292 110.443 134.037 109.2 135.448 107.535V109.839H139.532V91.2516ZM135.312 100.5C135.312 103.948 132.97 106.357 129.888 106.357C126.705 106.357 124.362 103.778 124.362 100.631C124.362 97.8522 126.238 94.7055 129.888 94.7055C132.533 94.7055 135.312 96.6456 135.312 100.5Z" fill="#788089"/>
<path d="M141.902 109.838H146.353V100.998C146.353 99.4237 146.353 97.4815 147.159 96.3437C147.961 95.1068 149.406 94.7046 150.207 94.7046C153.956 94.7046 153.956 99.1266 153.956 100.663V109.838H158.412V99.7935C158.412 98.3505 158.412 95.2402 156.7 93.199C155.16 91.3215 152.719 90.6141 151.11 90.6141C148.295 90.6141 146.759 92.1602 146.019 92.8635V91.2508H141.902V109.838Z" fill="#788089"/>
<path d="M174.233 103.778C173.059 105.654 171.59 106.357 170.117 106.357C166.764 106.357 164.523 103.712 164.523 100.531C164.523 96.7129 167.202 94.704 169.913 94.704C172.659 94.704 173.7 96.4784 174.233 97.4142H179.26C177.35 91.6867 172.255 90.6135 169.913 90.6135C164.789 90.6135 160.07 94.7727 160.07 100.46C160.07 106.624 165.187 110.442 169.949 110.442C174.302 110.442 177.748 107.929 179.26 103.778H174.233Z" fill="#788089"/>
<path fill-rule="evenodd" clip-rule="evenodd" d="M199.068 102.539C199.199 101.939 199.333 101.166 199.333 100.297C199.333 95.6128 195.618 90.5138 189.725 90.5138C183.997 90.5138 179.945 95.342 179.945 100.597C179.945 106.019 184.232 110.443 189.757 110.443C194.108 110.443 197.661 107.333 198.731 103.982H194.044C193.205 105.522 191.736 106.356 189.757 106.356C186.574 106.356 184.834 103.745 184.638 102.539H199.068ZM184.501 98.9555C185.339 95.5057 188.116 94.6023 189.757 94.6023C191.97 94.6023 194.278 95.9745 194.779 98.9555H184.501Z" fill="#788089"/>
<path fill-rule="evenodd" clip-rule="evenodd" d="M76.4604 48.2314L70.5086 58.5102L37.5643 56.657L40.8626 50.9315L76.4604 48.2314ZM100.276 15.4791L103.261 26.823L56.5152 23.7511L59.8115 18.0276L100.276 15.4791ZM69.2859 1.57463L96.6482 1.59484L98.7137 9.35144L65.9937 7.2981L69.2859 1.57463ZM66.8809 64.9027L62.1295 73.0715L28.0898 73.1079L31.3861 67.3865L66.8809 64.9027ZM126.644 42.8637L118.404 57.1461H126.252C129.888 57.1461 136.403 55.3312 138.408 50.1534C140.265 45.3414 136.852 42.8576 134.469 42.8576L126.644 42.8637ZM134.502 29.2017L141.347 29.1593C145.902 29.135 150.653 27.0514 152.391 22.8234C153.994 18.9007 151.84 15.56 148.984 15.5721L142.363 15.564L134.502 29.2017ZM103.518 26.823L110.429 14.8324L133.822 13.3308L134.639 11.8757L113 10.3619L118.061 1.57463L158.19 1.57262C170.53 1.57262 179.659 5.98446 176.11 18.9593C175.043 22.8901 170.027 32.7849 155.316 36.93C158.438 37.3019 166.215 40.7477 164.875 49.6805C162.494 65.5211 141.985 73.0614 130.577 73.0655L83.2005 73.0877L80.8662 63.9225L105.68 62.1723L106.523 60.7212L79.6092 59.0822L76.709 48.2173L115.005 45.9821L115.838 44.5431L47.0367 40.202L50.333 34.4805L124.39 29.6726L125.229 28.2316L103.518 26.823Z" fill="#788089"/>
</g>
</svg>
