<svg width="200" height="136" viewBox="0 0 200 136" fill="none" xmlns="http://www.w3.org/2000/svg">
<path d="M130.901 89.0287L89.7773 17.5593L119.321 0.590088L170.458 89.0287H130.901Z" fill="#788089"/>
<path d="M21.3633 79.0153L50.9065 61.9314L66.5381 89.0286H27.0961L21.3633 79.0153Z" fill="#788089"/>
<path d="M79.3418 134.624H87.75V100.609H79.3418V134.624Z" fill="#788089"/>
<path d="M184.712 135.427C175.31 135.427 169.653 130.573 169.348 123.732H178.214C178.214 125.872 179.552 129.006 185.285 129.12C189.107 129.12 190.903 126.865 190.903 125.184C190.674 122.509 187.311 122.279 183.718 121.706C180.125 121.133 177.068 120.483 174.851 119.336C172.023 117.884 170.112 114.75 170.112 111.158C170.112 105.081 175.386 100.265 184.177 100.265C192.699 100.265 198.088 104.737 198.662 111.387H190.101C190.024 109.591 189.68 106.762 184.635 106.762C181.234 106.762 178.979 107.45 178.788 109.82C178.788 113.298 185.858 113.068 191.362 114.521C196.636 115.858 199.999 119.145 199.999 123.732C199.999 132.178 193.158 135.427 184.712 135.427Z" fill="#788089"/>
<path d="M55.9902 48.6695L85.5335 31.6239L118.669 89.0287H87.7502V97.4368H79.342V88.9905L55.9902 48.6695Z" fill="#788089"/>
<path fill-rule="evenodd" clip-rule="evenodd" d="M56.7551 135.426C46.971 135.426 39.0215 127.439 39.0215 117.769C39.0215 107.985 46.971 100.265 56.7551 100.265C60.4623 100.265 63.8256 101.259 66.7684 103.284V89.0287H75.1766V134.624H66.7684V132.369C63.8256 134.28 60.4623 135.426 56.7551 135.426ZM47.0857 117.769C47.0857 123.043 51.5955 127.439 56.9844 127.439C62.2586 127.439 66.7684 123.043 66.7684 117.769C66.7684 112.495 62.2586 107.985 56.9844 107.985C51.5955 107.985 47.0857 112.495 47.0857 117.769Z" fill="#788089"/>
<path fill-rule="evenodd" clip-rule="evenodd" d="M118.899 89.0287H127.193V134.624H118.899V132.369C116.071 134.28 112.593 135.426 108.771 135.426C99.1019 135.426 91.1523 127.439 91.1523 117.769C91.1523 107.985 99.1019 100.265 108.771 100.265C112.593 100.265 115.956 101.259 118.899 103.284V89.0287ZM99.3312 117.769C99.3312 123.043 103.841 127.439 109.001 127.439C114.389 127.439 118.899 123.043 118.899 117.769C118.899 112.495 114.389 107.985 109.001 107.985C103.841 107.985 99.3312 112.495 99.3312 117.769Z" fill="#788089"/>
<path fill-rule="evenodd" clip-rule="evenodd" d="M147.64 135.427C138.009 135.427 130.021 127.439 130.021 117.769C130.021 107.985 138.009 100.265 147.64 100.265C151.348 100.265 154.826 101.259 157.654 103.284V100.571H166.062V134.624H157.654V132.369C154.826 134.28 151.462 135.427 147.64 135.427ZM138.2 117.769C138.2 123.044 142.71 127.439 147.984 127.439C153.259 127.439 157.654 123.044 157.654 117.769C157.654 112.495 153.259 107.985 147.984 107.985C142.71 107.985 138.2 112.495 138.2 117.769Z" fill="#788089"/>
<path fill-rule="evenodd" clip-rule="evenodd" d="M8.10241 117.769C8.10241 123.044 12.6122 127.439 17.8865 127.439C23.2753 127.439 27.7852 123.044 27.7852 117.769C27.7852 112.495 23.2753 107.985 17.8865 107.985C12.6122 107.985 8.10241 112.495 8.10241 117.769ZM17.6571 135.427C7.98775 135.427 0 127.439 0 117.769C0 107.985 7.98775 100.265 17.6571 100.265C21.3644 100.265 24.8423 101.259 27.7852 103.284V100.571H36.0787V134.624H27.7852V132.369C24.957 134.28 21.479 135.427 17.6571 135.427Z" fill="#788089"/>
</svg>
