<svg width="160" height="161" viewBox="0 0 160 161" fill="none" xmlns="http://www.w3.org/2000/svg">
<g clip-path="url(#clip0_520_303)">
<path d="M104.325 80.0048C104.325 66.57 93.4354 55.6796 80.0011 55.6796C66.5662 55.6796 55.6758 66.57 55.6758 80.0048C55.6758 93.4392 66.5662 104.33 80.0011 104.33C93.4354 104.33 104.325 93.4392 104.325 80.0048Z" fill="#788089"/>
<path d="M80.0033 0.201294C72.4002 0.201294 65.056 1.28714 58.0899 3.27319V46.4097C64.3902 42.2923 71.913 39.8898 80.0017 39.8898C102.155 39.8898 120.116 57.85 120.116 80.0049C120.116 102.16 102.155 120.12 80.0017 120.12C57.8468 120.12 39.8861 102.16 39.8861 80.0049C39.8861 79.2922 39.9064 78.5843 39.9423 77.8804L39.8861 77.9248V11.0291C16.1581 24.8593 0.199219 50.5605 0.199219 80.0049C0.199219 124.079 35.9294 159.809 80.0033 159.809C124.077 159.809 159.8 124.079 159.8 80.0049C159.8 35.9314 124.077 0.201294 80.0033 0.201294Z" fill="#788089"/>
</g>
<defs>
<clipPath id="clip0_520_303">
<rect width="160" height="160" fill="white" transform="translate(0 0.00842285)"/>
</clipPath>
</defs>
</svg>
