<svg width="200" height="201" viewBox="0 0 200 201" fill="none" xmlns="http://www.w3.org/2000/svg">
<g clip-path="url(#clip0_520_296)">
<path fill-rule="evenodd" clip-rule="evenodd" d="M35.4586 111.403C33.9147 111.403 32.7059 112.483 32.7059 114.059C32.7059 115.636 33.9209 116.71 35.4586 116.71C36.9953 116.71 38.2113 115.629 38.2113 114.059C38.2113 112.483 37.0015 111.403 35.4586 111.403ZM35.4586 115.951C34.3578 115.951 33.5412 115.147 33.5412 114.059C33.5412 112.973 34.3515 112.163 35.4586 112.163C36.5523 112.163 37.3751 112.985 37.3751 114.059C37.3751 115.127 36.545 115.951 35.4586 115.951ZM62.2438 102.113H48.8434L50.3666 78.821L41.6644 102.113H29.2207L48.9648 49.4668H62.2054L60.6771 73.078L69.5442 49.4668H81.989L62.2438 102.113ZM63.8604 102.113L83.6034 49.4668H96.0472L76.3041 102.113H63.8604Z" fill="#788089"/>
<path fill-rule="evenodd" clip-rule="evenodd" d="M27.7857 83.9663C10.3969 104.387 -6.00622 131.558 8.48257 144.07C22.5221 156.195 40.0707 149.016 52.0361 144.23C64.0015 139.444 196.255 82.0115 196.255 82.0115C197.531 81.3734 197.292 80.5755 195.696 80.974C195.053 81.1348 51.7175 119.98 51.7175 119.98C33.5287 125.086 12.7896 113.958 27.7857 83.9663Z" fill="#788089"/>
<path fill-rule="evenodd" clip-rule="evenodd" d="M35.9278 114.246C36.3138 114.227 36.6157 114.028 36.6157 113.494C36.6157 112.805 36.1654 112.632 35.4132 112.632H34.332V115.488H35.0531V114.272H35.1745L35.8313 115.488H36.6604L35.9278 114.246ZM35.4651 113.783H35.0542V113.12H35.4007C35.6134 113.12 35.8573 113.145 35.8573 113.422C35.8573 113.719 35.7162 113.783 35.4651 113.783ZM160.548 49.306C159.004 49.306 157.795 50.3872 157.795 51.9622C157.795 53.5383 159.011 54.6122 160.548 54.6122C162.084 54.6122 163.3 53.5311 163.3 51.9622C163.301 50.3872 162.093 49.306 160.548 49.306ZM160.548 53.8548C159.447 53.8548 158.63 53.0507 158.63 51.9633C158.63 50.8769 159.44 50.0666 160.548 50.0666C161.641 50.0666 162.465 50.8894 162.465 51.9633C162.465 53.0309 161.635 53.8548 160.548 53.8548Z" fill="#788089"/>
<path fill-rule="evenodd" clip-rule="evenodd" d="M161.019 52.1489C161.405 52.1303 161.708 51.9311 161.708 51.3967C161.708 50.7077 161.256 50.5345 160.505 50.5345H159.424V53.3899H160.144V52.1749H160.267L160.922 53.3899H161.752L161.019 52.1489ZM160.555 51.6862H160.144V51.0232H160.492C160.703 51.0232 160.948 51.0491 160.948 51.3261C160.948 51.6219 160.806 51.6862 160.555 51.6862ZM152.35 58.2416L155.694 49.4668H117.725L104.687 65.2609L110.706 49.4668H98.103L78.5176 102.113H90.9613L99.3232 80.0972L99.8959 102.113L138.078 102.03L141.713 91.9028H127.196L131.965 79.1406H143.93L147.611 69.3292H135.647L139.748 58.2416H152.35ZM112.241 98.6025L111.443 71.1637L130.258 50.5065L112.241 98.6025Z" fill="#788089"/>
</g>
<defs>
<clipPath id="clip0_520_296">
<rect width="200" height="200" fill="white" transform="translate(0 0.00842285)"/>
</clipPath>
</defs>
</svg>
