<svg width="200" height="118" viewBox="0 0 200 118" fill="none" xmlns="http://www.w3.org/2000/svg">
<path d="M146.458 44.3859C162.584 37.2914 173.114 26.6373 173.688 14.818C173.688 14.818 169.43 11.5381 155.684 6.48027C143.613 2.0387 134.404 1.02217 134.404 1.02217L134.447 27.3563C134.447 31.2914 132.867 35.308 129.885 38.864C120.761 36.661 110.677 35.4248 100.101 35.4213H100.094C89.5105 35.4248 79.4161 36.6645 70.2814 38.8711C67.2991 35.315 65.7159 31.295 65.7159 27.3563L65.7549 1.02217C65.7549 1.02217 56.553 2.0387 44.475 6.48027C30.7288 11.5381 26.4785 14.818 26.4785 14.818C27.0488 26.6409 37.5824 37.2985 53.7265 44.393C37.5966 51.4874 27.0665 62.1415 26.4962 73.9574C26.4962 73.9574 30.7501 77.2408 44.4963 82.2951C56.5707 86.7366 65.7761 87.7532 65.7761 87.7532L65.7336 61.419C65.7336 57.4839 67.3133 53.4638 70.2992 49.9113C79.4231 52.1179 89.5034 53.3505 100.08 53.3505C110.666 53.3505 120.768 52.1144 129.899 49.9007C132.881 53.4568 134.461 57.4839 134.461 61.419L134.426 87.7532C134.426 87.7532 143.631 86.7366 155.705 82.2951C169.452 77.2408 173.706 73.9574 173.706 73.9574C173.132 62.1345 162.598 51.4768 146.458 44.3859ZM100.087 50.3115H100.076L99.775 50.3044C90.226 50.3044 82.4409 47.9668 76.7313 44.393C82.4409 40.8121 90.2295 38.4709 99.7963 38.4709L100.09 38.4673H100.104L100.405 38.4709C109.958 38.4709 117.74 40.8086 123.449 44.3824C117.74 47.9597 109.951 50.3044 100.388 50.3044" fill="#788089"/>
<path d="M5.36949 116.93C0.743737 116.93 0.662273 113.402 0.662273 112.042V105.624C0.662273 105.234 0.630396 104.717 1.45566 104.717H3.84646C4.62214 104.717 4.57255 105.27 4.57255 105.624V112.042C4.57255 112.499 4.65756 113.724 6.33997 113.724H10.3494C12 113.724 12.0956 112.499 12.0956 112.042V105.624C12.0956 105.27 12.0495 104.717 12.8217 104.717H15.2302C16.105 104.717 16.0271 105.27 16.0271 105.624V112.042C16.0271 113.402 15.9457 116.93 11.3022 116.93" fill="#788089"/>
<path d="M27.5247 116.155C25.8919 113.955 23.5613 111.185 21.1847 108.26V116.073C21.1847 116.413 21.2697 116.93 20.4586 116.93H18.2272C17.4196 116.93 17.5152 116.413 17.5152 116.073V105.625C17.5152 105.27 17.4798 104.718 18.2272 104.718H22.5766C23.8057 104.718 25.5554 107.194 26.703 108.826C27.5884 110.073 29.2248 111.947 30.3228 113.353V105.625C30.3228 105.27 30.2732 104.718 31.0843 104.718H33.507C34.2862 104.718 34.2366 105.27 34.2366 105.625V116.93H29.7738C28.8175 116.93 28.396 116.994 27.5247 116.155Z" fill="#788089"/>
<path d="M45.909 113.718C47.8641 113.718 47.7225 111.84 47.7225 110.983C47.7225 108.104 46.9114 107.99 45.6185 107.99H39.4733V113.718H45.909ZM35.7012 116.934V104.739H46.4792C47.138 104.739 51.5513 104.661 51.5513 109.297C51.5513 114.04 52.0684 116.934 46.5749 116.934H40.7661L39.5052 114.38V116.934" fill="#788089"/>
<path d="M55.7739 104.817H65.7019C66.5449 104.817 66.4316 105.366 66.4316 106.386C66.4316 107.335 66.5591 107.87 65.7019 107.87H57.8566C57.6476 107.87 56.9392 107.757 56.9392 108.501C56.9392 109.244 56.794 109.538 57.5838 109.538H64.5225C64.5225 109.538 65.5248 111.447 65.6382 111.77C65.8011 112.06 65.7834 112.337 65.1706 112.337H57.9876L56.8719 110.169V113.371C56.8719 114.115 57.5378 113.969 57.7291 113.969H65.879C66.6901 113.969 66.6228 114.533 66.6228 115.453C66.6228 116.445 66.6901 116.991 65.879 116.991H55.5614C54.7043 116.991 53.0254 116.732 53.0254 114.051V107.321C53.0254 106.627 53.3973 104.817 55.7739 104.817Z" fill="#788089"/>
<path d="M77.7607 107.956H72.926C72.122 107.956 72.1503 108.232 72.1503 108.477V110.659H77.1303C79.5423 110.659 79.5423 110.057 79.5423 109.426C79.5423 108.165 79.4467 107.956 77.7607 107.956ZM69.1114 104.737H79.978C81.4337 104.737 83.5482 104.722 83.5482 108.65C83.5482 111.222 83.0028 111.349 81.8375 112.143C83.7962 112.483 83.5376 114.987 83.5376 116.283C83.5376 116.946 83.2968 116.931 83.0984 116.931H79.9142C79.2484 116.931 79.4113 115.879 79.4113 115.33C79.4113 113.825 78.5718 113.892 78.246 113.892H73.5565C73.1067 113.113 72.2318 111.367 72.2318 111.367V116.428C72.2318 116.868 71.7926 116.931 71.6332 116.931H68.4349C68.6084 116.931 68.1055 116.963 68.1055 116.524V105.788C68.1055 105.027 68.6403 104.737 69.1114 104.737Z" fill="#788089"/>
<path d="M100.967 108.195L98.9627 111.85L99.1398 112.027H102.877L103.071 111.85C102.94 111.574 101.325 108.503 101.162 108.177L100.967 108.195ZM102.26 104.819C103.054 104.819 103.826 105.173 104.669 106.806C105.239 107.968 109.185 115.098 110.006 116.589V116.993H105.898L104.715 114.857H99.7207C99.7207 114.857 98.8812 112.934 98.6404 112.402C98.3322 112.902 96.6817 116.04 96.1114 116.993H91.9922V116.734C92.8316 115.151 98.5731 104.819 98.5731 104.819" fill="#788089"/>
<path d="M120.781 107.956H115.946C115.138 107.956 115.17 108.232 115.17 108.477V110.659H120.15C122.562 110.659 122.562 110.057 122.562 109.426C122.562 108.165 122.467 107.956 120.781 107.956ZM112.131 104.737H122.998C124.454 104.737 126.572 104.722 126.572 108.65C126.572 111.222 126.026 111.349 124.857 112.143C126.813 112.483 126.554 114.987 126.554 116.283C126.554 116.946 126.313 116.931 126.118 116.931H122.934C122.268 116.931 122.431 115.879 122.431 115.33C122.431 113.825 121.592 113.892 121.266 113.892H116.576C116.123 113.113 115.248 111.367 115.248 111.367V116.428C115.248 116.868 114.816 116.931 114.653 116.931H111.451C111.628 116.931 111.129 116.963 111.129 116.524V105.788C111.129 105.027 111.664 104.737 112.131 104.737Z" fill="#788089"/>
<path d="M136.067 116.93C135.256 115.41 133.007 111.22 131.487 108.475V116.072C131.487 116.412 131.533 116.93 130.765 116.93H128.561C127.736 116.93 127.8 116.412 127.8 116.072V105.624C127.8 105.27 127.754 104.735 128.561 104.735H132.362C132.929 104.735 133.733 104.604 134.643 106.417C135.323 107.869 136.765 110.884 137.749 112.481C138.766 110.884 140.239 107.869 140.919 106.417C141.808 104.604 142.598 104.735 143.229 104.735H147.011C147.791 104.735 147.709 105.27 147.709 105.624V116.072C147.709 116.412 147.819 116.93 147.011 116.93H144.798C143.99 116.93 144.054 116.412 144.054 116.072V108.475C142.52 111.22 140.285 115.41 139.442 116.93" fill="#788089"/>
<path d="M159.835 113.824C161.666 113.824 161.599 111.936 161.599 110.671C161.599 109.538 161.857 107.76 159.481 107.76H155.45C153.091 107.76 153.367 109.538 153.367 110.671C153.367 111.936 153.254 113.824 155.082 113.824H159.835ZM152.592 116.962C148.986 116.962 149.145 113.094 149.145 110.593C149.145 108.295 148.887 104.707 153.399 104.671H161.407C165.934 104.671 165.64 108.309 165.64 110.593C165.64 113.094 165.821 116.962 162.162 116.962" fill="#788089"/>
<path d="M171.668 116.93C167.039 116.93 166.961 113.402 166.961 112.042V105.624C166.961 105.234 166.929 104.717 167.754 104.717H170.149C170.921 104.717 170.875 105.27 170.875 105.624V112.042C170.875 112.499 170.956 113.724 172.639 113.724H176.648C178.299 113.724 178.394 112.499 178.394 112.042V105.624C178.394 105.27 178.345 104.717 179.121 104.717H181.529C182.404 104.717 182.326 105.27 182.326 105.624V112.042C182.326 113.402 182.244 116.93 177.601 116.93" fill="#788089"/>
<path d="M193.542 107.956H188.708C187.9 107.956 187.932 108.232 187.932 108.477V110.659H192.912C195.324 110.659 195.324 110.057 195.324 109.426C195.324 108.165 195.228 107.956 193.542 107.956ZM184.889 104.737H195.76C197.215 104.737 199.337 104.722 199.337 108.65C199.337 111.222 198.784 111.349 197.619 112.143C199.578 112.483 199.319 114.987 199.319 116.283C199.319 116.946 199.078 116.931 198.88 116.931H195.696C195.034 116.931 195.193 115.879 195.193 115.33C195.193 113.825 194.353 113.892 194.031 113.892H189.338C188.888 113.113 188.013 111.367 188.013 111.367V116.428C188.013 116.868 187.574 116.931 187.415 116.931H184.216C184.39 116.931 183.891 116.963 183.891 116.524V105.788C183.891 105.027 184.425 104.737 184.889 104.737Z" fill="#788089"/>
</svg>
