<?xml version="1.0" encoding="utf-8"?>
<!-- Generator: Adobe Illustrator 25.0.0, SVG Export Plug-In . SVG Version: 6.00 Build 0)  -->
<svg version="1.1" id="Layer_1" xmlns="http://www.w3.org/2000/svg" xmlns:xlink="http://www.w3.org/1999/xlink" x="0px" y="0px"
	 viewBox="0 0 800 800" style="enable-background:new 0 0 800 800;" xml:space="preserve">
<style type="text/css">
	.st0{fill:#FFFFFF;}
	.st1{fill:#08AF42;}
	.st2{fill:#0BAE44;}
	.st3{opacity:0.3;}
	.st4{fill:#04B040;}
</style>
<rect y="0" class="st0" width="800" height="800"/>
<g>
	<path class="st4" d="M246.52,486.84c0.67,2.82,2.19,4.38,5.22,4.51c19.75,0.83,39.51,0.53,59.27,0.23c2.72-0.04,4.1-1.42,4.63-4.06
		c0.87-4.34,1.96-8.64,2.88-12.97c6.86-32.31,13.64-64.65,20.56-96.95c4.61-21.54,9.42-43.03,14.14-64.54
		c0.81-3.67,0.15-4.52-3.73-4.56c-5.32-0.04-10.65,0.21-15.96-0.01c-4.09-0.17-5.82,1.59-6.63,5.51
		c-2.84,13.62-5.96,27.19-8.73,40.83c-5.31,26.17-10.99,52.26-16.56,78.37c-0.35,1.64-0.11,4.24-2.24,4.35
		c-2.24,0.12-2.12-2.53-2.49-4.11c-2.66-11.47-5.17-22.97-7.75-34.45c-6.41-28.53-12.87-57.05-19.18-85.6
		c-0.8-3.63-2.53-5.07-6.23-5.01c-9.75,0.15-19.51,0.05-29.26,0.05c0,0.04,0,0.07,0,0.11c-9.75,0-19.51,0.1-29.26-0.05
		c-3.95-0.06-5.8,1.6-6.25,5.43c-0.35,3.01-0.98,6-1.63,8.97c-4.38,20.16-8.85,40.3-13.19,60.47c-4.15,19.29-8.13,38.62-12.24,57.93
		c-3.19,14.98-6.48,29.93-9.65,44.91c-0.78,3.7,0.18,4.98,3.95,5.17c4.8,0.25,9.62,0.23,14.43,0.23c5.42-0.01,6.24-0.76,7.32-6.08
		c1.86-9.18,3.68-18.37,5.65-27.53c3.23-15.09,6.65-30.15,9.83-45.26c3.2-15.24,6.18-30.52,9.31-45.78
		c0.29-1.41,0.31-3.49,2.16-3.63c2.29-0.17,2.17,2.19,2.52,3.61c5.8,23.47,11.54,46.95,17.24,70.45
		C238.65,453.85,242.59,470.34,246.52,486.84z"/>
	<path class="st4" d="M488.16,294.95c1.28,1.3,2.52,3.5,4.68,2.19c2.77-1.68,5.33-3.78,6.77-6.5c0-1.98-1.2-2.86-2.11-3.86
		c-19.66-21.52-44.22-34.76-72.55-39.9c-46.29-8.41-86.61,4.44-120.44,37.22c-6.41,6.21-6.24,6.47,0.58,12.04
		c1.97,1.61,3.49,1.6,5.24-0.21c2.55-2.63,5.15-5.22,7.85-7.7c16.01-14.74,34.69-24.78,55.97-28.87
		C418.33,250.85,456.45,262.89,488.16,294.95z"/>
	<path class="st4" d="M231.56,291.54c3.36,2.26,6.83,4.36,10.15,6.68c2.5,1.74,4.24,1.42,5.97-1.16c3.87-5.79,8.3-11.17,12.79-16.49
		c21.18-25.09,47.52-42.9,78.34-53.65c28.41-9.91,57.81-12.51,87.65-8.03c15.16,2.27,30.12,5.44,44.23,11.84
		c18.56,8.41,35.97,18.53,51.09,32.39c10.88,9.97,20.68,20.83,29.21,32.86c2.8,3.95,3.45,4.16,7.64,1.58
		c2.58-1.59,5.08-3.33,7.6-5.03c4.98-3.37,5.33-4.91,1.89-9.75c-13.62-19.14-29.85-35.77-49.01-49.34
		c-34.15-24.19-72.17-37.33-114.11-38.71c-18.48-0.69-44.87,2.57-61.2,7.62c-36.55,11.29-68.34,30.29-94.56,58.33
		c-6.93,7.41-13.53,15.07-19.08,23.58C227.58,288.18,227.76,288.98,231.56,291.54z"/>
	<path class="st4" d="M568.35,508.65c-3.57-2.16-7-4.56-10.35-7.05c-2.79-2.07-4.59-1.51-6.5,1.3
		c-12.3,18.07-27.3,33.49-45.17,46.15c-20.83,14.76-43.66,25.18-68.65,30.12c-27.88,5.52-55.8,5.21-83.56-1.83
		c-20.23-5.13-38.9-13.48-56.25-25.01c-20.18-13.42-37.01-30.18-50.62-50.19c-1.35-1.98-2.81-2.37-4.78-1.07
		c-2.53,1.68-5.05,3.38-7.6,5.03c-8.09,5.21-8.13,5.23-2.26,13.09c17.85,23.91,39.29,43.73,65.33,58.63
		c31.46,17.99,65.05,27.64,106.55,27.57c5.78-0.28,16.73-0.89,27.65-2.6c29.3-4.57,55.83-15.85,80.6-31.81
		c16.85-10.86,31.26-24.43,44.4-39.46c4.51-5.16,8.41-10.77,12.43-16.3C571.45,512.61,571.44,510.52,568.35,508.65z"/>
	<path class="st4" d="M442.69,333.82c0.62-2.8,2.37-4,5.19-3.92c3.29,0.09,6.59,0.04,9.87,0.16c13.42,0.49,26.84,0.01,40.26-0.02
		c3.13-0.01,5.32-0.78,5.88-4.42c0.58-3.74,1.71-7.39,2.53-11.1c1.13-5.06,0.26-6.2-4.85-6.21c-18.23-0.02-36.47-0.01-54.7-0.01
		c0,0.06,0,0.12,0,0.18c-18.61,0-37.23,0.06-55.84-0.05c-3.52-0.02-5.28,1.19-5.98,4.74c-2.18,11.05-4.62,22.04-6.94,33.06
		c-5.92,28.1-11.77,56.22-17.76,84.31c-3.99,18.68-8.19,37.32-12.25,55.99c-0.9,4.14-0.1,5.23,3.96,5.24
		c16.84,0.02,33.68,0.02,50.52-0.11c6.29-0.05,6.61-0.38,7.97-6.74c5.24-24.63,10.42-49.27,15.62-73.91
		c1.18-5.62,1.49-5.92,7.24-5.92c12.92,0.01,25.83,0.02,38.75,0.15c3.34,0.04,5.24-1.24,5.88-4.54c0.73-3.73,1.68-7.41,2.38-11.14
		c1.15-6.09,0.86-6.43-5.51-6.44c-12.41-0.02-24.82,0-37.23,0.04c-3,0.01-5.04-0.76-4.38-4.37
		C436.03,363.71,439.38,348.77,442.69,333.82z"/>
	<path class="st4" d="M637.87,486c-1.92-17.74-3.85-35.48-5.84-53.22c-3.07-27.42-6.24-54.82-9.29-82.24
		c-1.34-12.08-2.39-24.18-3.75-36.26c-0.62-5.45-1.09-5.69-6.4-5.7c-9.37-0.02-18.75-0.01-28.12-0.01c0-0.01,0-0.03,0-0.04
		c-8.99,0-17.99,0.24-26.97-0.09c-5.25-0.19-7.97,2.01-10.1,6.62c-15.13,32.76-30.45,65.42-45.72,98.11
		c-11.41,24.43-22.85,48.85-34.26,73.28c-2.11,4.51-1.54,5.38,3.32,5.34c5.57-0.05,11.15-0.26,16.72-0.12c4,0.1,6.1-1.62,7.67-5.3
		c5.17-12.11,10.75-24.04,16.05-36.09c1.46-3.33,3.62-4.76,7.31-4.72c14.18,0.14,28.37,0.03,42.56,0.09
		c5.69,0.02,5.99,0.33,6.5,5.91c1.07,11.72,2.11,23.45,3.09,35.18c0.26,3.14,1.51,4.85,4.93,4.9c19.25,0.3,38.5,0.53,57.75-0.25
		C637.74,491.2,638.35,490.44,637.87,486z M559.83,424.59c-5.31,0.04-10.62,0.01-15.93,0.01c0,0.02,0,0.04,0,0.07
		c-5.31,0-10.62,0.03-15.93-0.01c-3.74-0.03-4.53-1.04-3.12-4.31c7.72-18,15.3-36.06,23.63-53.8c2.31-4.92,4.43-9.93,6.75-14.84
		c0.56-1.18,1.05-3.1,2.6-2.88c1.67,0.24,1.37,2.24,1.49,3.52c0.92,9.81,1.81,19.63,2.59,29.45c0.98,12.47,1.81,24.96,2.78,37.43
		C565.02,423.84,564.5,424.56,559.83,424.59z"/>
	<path class="st4" d="M373.78,539.98c-24.66-5.31-45.7-17.46-62.93-35.99c-2.35-2.53-4.35-2.68-6.64-0.14
		c-0.59,0.65-1.32,1.17-2,1.74c-3.99,3.33-4.05,4.29-0.39,8.13c26.53,27.89,59.32,41.37,99.69,42.39
		c4.43-0.38,11.04-0.59,17.53-1.56c29.77-4.41,55.28-17.34,76.49-38.72c5.85-5.9,5.8-6.45-0.46-12.1c-2.35-2.12-4.05-2.23-6.36,0.18
		c-15.63,16.31-34.03,28.03-55.96,34.22C413.18,543.68,393.47,544.22,373.78,539.98z"/>
</g>
</svg>
