<svg xmlns="http://www.w3.org/2000/svg" xmlns:xlink="http://www.w3.org/1999/xlink" width="500" zoomAndPan="magnify" viewBox="0 0 375 374.999991" height="500" preserveAspectRatio="xMidYMid meet" version="1.0"><defs><g/></defs><rect x="-37.5" width="450" fill="#ffffff" y="-37.499999" height="449.999989" fill-opacity="1"/><rect x="-37.5" width="450" fill="#000000" y="-37.499999" height="449.999989" fill-opacity="1"/><path stroke-linecap="butt" transform="matrix(2.358779, 0, 0, 2.358779, 54.892398, 153.297691)" fill="none" stroke-linejoin="miter" d="M 7.863819 19.926876 L 7.863819 15.614528 L 11.863174 15.614528 C 14.292596 15.614528 16.2517 15.434019 17.737175 15.073 C 19.22265 14.711982 20.304049 14.148926 20.981373 13.380519 C 21.658696 12.613769 21.99653 11.611861 21.99653 10.376449 C 21.99653 9.141037 21.658696 8.137473 20.981373 7.365754 C 20.304049 6.595692 19.22265 6.029324 17.737175 5.668305 C 16.2517 5.307287 14.292596 5.126778 11.863174 5.126778 L 1.739755 5.126778 L 1.739755 19.926876 Z M 8.009551 11.928166 L 11.518716 11.918229 C 12.512345 11.918229 13.292343 11.878484 13.862024 11.797338 C 14.431704 11.717848 14.849028 11.608548 15.11234 11.46944 C 15.375651 11.331988 15.544568 11.169696 15.617434 10.985875 C 15.6903 10.802053 15.726733 10.598359 15.726733 10.376449 C 15.726733 10.154539 15.6903 9.949189 15.617434 9.762055 C 15.544568 9.574922 15.375651 9.410973 15.11234 9.271865 C 14.849028 9.134413 14.431704 9.023458 13.862024 8.943968 C 13.292343 8.864477 12.512345 8.824732 11.518716 8.824732 L 8.009551 8.824732 Z M 8.009551 20.072608 L 1.594022 20.072608 L 1.594022 4.981046 L 11.863174 4.981046 C 14.3075 4.981046 16.281509 5.164867 17.788513 5.534166 C 19.295516 5.901808 20.398444 6.483081 21.09564 7.277984 C 21.792836 8.072887 22.142262 9.10626 22.142262 10.376449 C 22.142262 11.646638 21.792836 12.680011 21.09564 13.474914 C 20.398444 14.269817 19.295516 14.849434 17.788513 15.213764 C 16.281509 15.578095 14.3075 15.76026 11.863174 15.76026 L 8.009551 15.76026 Z M 7.863819 12.073898 L 7.863819 8.679 L 11.518716 8.679 C 12.518969 8.679 13.31056 8.720401 13.893489 8.803204 C 14.476417 8.887662 14.911958 9.005241 15.20011 9.157598 C 15.488262 9.309954 15.672084 9.490463 15.75323 9.699125 C 15.83272 9.907787 15.872466 10.13301 15.872466 10.376449 C 15.872466 10.613264 15.83272 10.83683 15.75323 11.048804 C 15.672084 11.260778 15.488262 11.441288 15.20011 11.590332 C 14.911958 11.739376 14.476417 11.8553 13.893489 11.938102 C 13.31056 12.02256 12.518969 12.063962 11.518716 12.063962 Z M 42.491776 19.926876 L 42.491776 16.37631 L 30.763646 16.37631 L 30.763646 13.897206 L 39.981208 13.897206 L 39.981208 11.16804 L 30.763646 11.16804 L 30.763646 8.679 L 41.66872 8.679 L 41.66872 5.126778 L 24.639582 5.126778 L 24.639582 19.926876 Z M 42.637508 20.072608 L 24.49385 20.072608 L 24.49385 4.981046 L 41.814453 4.981046 L 41.814453 8.824732 L 30.909379 8.824732 L 30.909379 11.022308 L 40.12694 11.022308 L 40.12694 14.042939 L 30.909379 14.042939 L 30.909379 16.230578 L 42.637508 16.230578 Z M 65.350202 19.926876 C 65.121668 19.322419 64.972623 18.708025 64.903069 18.083695 C 64.833515 17.409684 64.654662 16.793634 64.36651 16.235546 C 64.078358 15.675802 63.392754 15.170707 62.309699 14.720262 C 63.427531 14.261537 64.220778 13.68192 64.689439 12.979756 C 65.158101 12.279248 65.391604 11.411479 65.391604 10.376449 C 65.391604 9.141037 65.05377 8.137473 64.376446 7.365754 C 63.699123 6.595692 62.617724 6.029324 61.132249 5.668305 C 59.646774 5.307287 57.689326 5.126778 55.258248 5.126778 L 45.134828 5.126778 L 45.134828 19.926876 L 51.258893 19.926876 L 51.258893 15.614528 L 55.40398 15.614528 C 56.356207 15.636056 57.076588 15.793381 57.565122 16.089814 C 58.055312 16.38459 58.398114 16.753889 58.59684 17.197709 C 58.79391 17.643186 58.941298 18.093631 59.039005 18.552356 C 59.143336 19.122037 59.323845 19.579106 59.580532 19.926876 Z M 51.404625 11.928166 L 54.915446 11.918229 C 57.392893 11.918229 58.757476 11.588676 59.00754 10.927913 C 59.083718 10.747404 59.121807 10.563582 59.121807 10.376449 C 59.121807 10.182691 59.085374 9.993902 59.012508 9.813393 C 58.939642 9.632884 58.772381 9.468935 58.507413 9.319891 C 58.244102 9.170846 57.826778 9.049955 57.258753 8.960528 C 56.689073 8.869446 55.907418 8.824732 54.915446 8.824732 L 51.404625 8.824732 Z M 65.568801 20.072608 L 59.49773 20.072608 C 59.206265 19.670189 59.004228 19.170062 58.893272 18.573885 C 58.80219 18.128408 58.663082 17.694524 58.47098 17.270576 C 58.280535 16.848283 57.952637 16.493889 57.487288 16.209049 C 57.021938 15.924209 56.328055 15.775164 55.40398 15.76026 L 51.404625 15.76026 L 51.404625 20.072608 L 44.989096 20.072608 L 44.989096 4.981046 L 55.258248 4.981046 C 57.702574 4.981046 59.678239 5.164867 61.185242 5.534166 C 62.69059 5.901808 63.793517 6.483081 64.490714 7.277984 C 65.189566 8.072887 65.537336 9.10626 65.537336 10.376449 C 65.537336 12.501158 64.590076 13.948544 62.693902 14.720262 C 63.589824 15.094529 64.189313 15.573127 64.490714 16.156055 C 64.79377 16.74064 64.979248 17.378219 65.048802 18.073759 C 65.118356 18.68484 65.292241 19.350571 65.568801 20.072608 Z M 51.258893 12.073898 L 51.258893 8.679 L 54.915446 8.679 C 55.914043 8.679 56.705633 8.725369 57.288562 8.819764 C 57.873147 8.912503 58.308688 9.040018 58.59684 9.198999 C 58.884992 9.359636 59.068813 9.541801 59.148304 9.747151 C 59.227794 9.950845 59.267539 10.161163 59.267539 10.376449 C 59.267539 10.585111 59.227794 10.792117 59.148304 10.995811 C 59.068813 11.201161 58.884992 11.383326 58.59684 11.542307 C 58.308688 11.702943 57.873147 11.828803 57.288562 11.923198 C 56.705633 12.017592 55.914043 12.063962 54.915446 12.063962 Z M 92.282506 19.926876 L 81.668896 12.365362 L 92.270914 5.126778 L 84.325197 5.126778 L 74.160376 12.115299 L 74.160376 5.126778 L 68.036312 5.126778 L 68.036312 19.926876 L 74.160376 19.926876 L 74.160376 17.489174 L 77.951069 14.907395 L 84.38647 19.926876 Z M 92.729639 20.072608 L 84.335133 20.072608 L 77.941133 15.084593 L 74.306108 17.563696 L 74.306108 20.072608 L 67.890579 20.072608 L 67.890579 4.981046 L 74.306108 4.981046 L 74.306108 11.835427 L 84.272203 4.981046 L 92.739575 4.981046 L 81.928896 12.365362 Z M 102.528473 20.249805 C 104.542227 20.249805 106.161842 20.034519 107.387317 19.603947 C 108.612792 19.173374 109.543491 18.583821 110.182725 17.833632 C 110.82196 17.083442 111.24922 16.218985 111.464506 15.240261 C 111.499283 15.024975 111.515844 14.816313 111.515844 14.615931 C 111.515844 13.920391 111.322086 13.349055 110.932915 12.896954 C 110.426164 12.29912 109.719032 11.848675 108.813174 11.542307 C 107.907316 11.237594 106.931904 11.022308 105.886938 10.896448 C 104.841972 10.772244 103.856623 10.682818 102.929236 10.626512 C 102.00185 10.570207 101.289749 10.502309 100.794591 10.41785 C 100.297777 10.335048 100.04937 10.189316 100.04937 9.980654 C 100.04937 9.917724 100.069242 9.851482 100.112299 9.783584 C 100.61905 9.053267 101.423889 8.688936 102.528473 8.688936 C 103.631401 8.688936 104.429616 9.043331 104.923118 9.752119 L 111.442978 9.752119 C 111.242596 8.828044 110.82196 7.99174 110.182725 7.241551 C 109.543491 6.491361 108.612792 5.901808 107.387317 5.471236 C 106.161842 5.040663 104.542227 4.825377 102.528473 4.825377 C 100.514719 4.825377 98.895104 5.040663 97.669629 5.471236 C 96.444154 5.901808 95.511799 6.491361 94.872564 7.241551 C 94.23333 7.99174 93.807726 8.856197 93.59244 9.834921 C 93.570911 10.015431 93.560975 10.189316 93.560975 10.35492 C 93.560975 12.292496 95.06301 13.494787 98.070393 13.95848 C 99.438288 14.167142 100.739941 14.299626 101.975353 14.354276 C 102.968982 14.403957 103.724139 14.476823 104.240826 14.57453 C 104.759169 14.670581 105.017513 14.834529 105.017513 15.063064 C 105.017513 15.132618 104.992672 15.208796 104.944646 15.291599 C 104.437896 16.021916 103.631401 16.386246 102.528473 16.386246 C 101.423889 16.386246 100.625674 16.031852 100.132172 15.323063 L 93.612312 15.323063 C 93.81435 16.247138 94.23333 17.083442 94.872564 17.833632 C 95.511799 18.583821 96.444154 19.173374 97.669629 19.603947 C 98.895104 20.034519 100.514719 20.249805 102.528473 20.249805 Z M 102.528473 20.395537 C 100.499814 20.395537 98.863639 20.176939 97.616635 19.739743 C 96.371288 19.302546 95.420716 18.698089 94.768233 17.928026 C 94.115751 17.156308 93.668618 16.240514 93.425179 15.177331 L 100.214974 15.177331 C 100.708476 15.88612 101.480195 16.240514 102.528473 16.240514 C 103.576751 16.240514 104.340189 15.896056 104.818787 15.208796 C 104.853564 15.154147 104.87178 15.104465 104.87178 15.063064 C 104.87178 14.784848 103.906305 14.597715 101.975353 14.501664 C 100.726693 14.445358 99.416759 14.312874 98.048864 14.105868 C 94.960335 13.625615 93.415242 12.376955 93.415242 10.35492 C 93.415242 10.182691 93.425179 10.002182 93.446707 9.813393 C 93.675242 8.806516 94.115751 7.918874 94.768233 7.147156 C 95.420716 6.377094 96.371288 5.772636 97.616635 5.33544 C 98.863639 4.898243 100.499814 4.679645 102.528473 4.679645 C 104.555475 4.679645 106.19165 4.898243 107.438654 5.33544 C 108.685658 5.772636 109.634574 6.377094 110.287056 7.147156 C 110.939539 7.918874 111.388328 8.834669 111.630111 9.897851 L 104.840315 9.897851 C 104.346813 9.189063 103.576751 8.834669 102.528473 8.834669 C 101.480195 8.834669 100.715101 9.179127 100.236503 9.866386 C 100.20835 9.907787 100.195102 9.945877 100.195102 9.980654 C 100.195102 10.106513 100.42198 10.205876 100.877393 10.282054 C 101.33115 10.359889 102.023378 10.424474 102.949109 10.48078 C 103.876496 10.53543 104.866812 10.626512 105.918403 10.750716 C 106.969993 10.876575 107.955341 11.095174 108.876104 11.408167 C 109.79521 11.719504 110.515591 12.184853 111.037246 12.802559 C 111.452914 13.282813 111.661576 13.885614 111.661576 14.615931 C 111.661576 14.822937 111.645015 15.038223 111.610238 15.26179 C 111.380048 16.268667 110.939539 17.156308 110.287056 17.928026 C 109.634574 18.698089 108.685658 19.302546 107.438654 19.739743 C 106.19165 20.176939 104.555475 20.395537 102.528473 20.395537 Z M 102.528473 20.395537 " stroke="#216d00" stroke-width="1.599998" stroke-opacity="1" stroke-miterlimit="4"/><g fill="#7ed957" fill-opacity="1"><g transform="translate(54.892398, 200.473265)"><g><path d="M 18.546875 -0.171875 L 18.546875 -10.34375 L 27.984375 -10.34375 C 33.710938 -10.34375 38.328125 -10.765625 41.828125 -11.609375 C 45.335938 -12.460938 47.890625 -13.796875 49.484375 -15.609375 C 51.085938 -17.421875 51.890625 -19.785156 51.890625 -22.703125 C 51.890625 -25.617188 51.085938 -27.984375 49.484375 -29.796875 C 47.890625 -31.617188 45.335938 -32.953125 41.828125 -33.796875 C 38.328125 -34.648438 33.710938 -35.078125 27.984375 -35.078125 L 4.109375 -35.078125 L 4.109375 -0.171875 Z M 18.890625 -19.046875 L 27.171875 -19.0625 C 29.515625 -19.0625 31.359375 -19.15625 32.703125 -19.34375 C 34.046875 -19.53125 35.023438 -19.785156 35.640625 -20.109375 C 36.265625 -20.441406 36.660156 -20.820312 36.828125 -21.25 C 37.003906 -21.6875 37.09375 -22.171875 37.09375 -22.703125 C 37.09375 -23.222656 37.003906 -23.703125 36.828125 -24.140625 C 36.660156 -24.585938 36.265625 -24.972656 35.640625 -25.296875 C 35.023438 -25.628906 34.046875 -25.890625 32.703125 -26.078125 C 31.359375 -26.265625 29.515625 -26.359375 27.171875 -26.359375 L 18.890625 -26.359375 Z M 18.890625 0.171875 L 3.765625 0.171875 L 3.765625 -35.421875 L 27.984375 -35.421875 C 33.742188 -35.421875 38.398438 -34.988281 41.953125 -34.125 C 45.515625 -33.257812 48.117188 -31.882812 49.765625 -30 C 51.410156 -28.125 52.234375 -25.691406 52.234375 -22.703125 C 52.234375 -19.703125 51.410156 -17.265625 49.765625 -15.390625 C 48.117188 -13.515625 45.515625 -12.144531 41.953125 -11.28125 C 38.398438 -10.425781 33.742188 -10 27.984375 -10 L 18.890625 -10 Z M 18.546875 -18.6875 L 18.546875 -26.703125 L 27.171875 -26.703125 C 29.523438 -26.703125 31.390625 -26.601562 32.765625 -26.40625 C 34.140625 -26.207031 35.164062 -25.925781 35.84375 -25.5625 C 36.53125 -25.207031 36.96875 -24.785156 37.15625 -24.296875 C 37.34375 -23.804688 37.4375 -23.273438 37.4375 -22.703125 C 37.4375 -22.140625 37.34375 -21.609375 37.15625 -21.109375 C 36.96875 -20.609375 36.53125 -20.179688 35.84375 -19.828125 C 35.164062 -19.484375 34.140625 -19.210938 32.765625 -19.015625 C 31.390625 -18.816406 29.523438 -18.71875 27.171875 -18.71875 Z M 18.546875 -18.6875 "/></g></g></g><g fill="#7ed957" fill-opacity="1"><g transform="translate(108.909998, 200.473265)"><g><path d="M 46.203125 -0.171875 L 46.203125 -8.546875 L 18.546875 -8.546875 L 18.546875 -14.390625 L 40.296875 -14.390625 L 40.296875 -20.828125 L 18.546875 -20.828125 L 18.546875 -26.703125 L 44.265625 -26.703125 L 44.265625 -35.078125 L 4.109375 -35.078125 L 4.109375 -0.171875 Z M 46.546875 0.171875 L 3.765625 0.171875 L 3.765625 -35.421875 L 44.609375 -35.421875 L 44.609375 -26.359375 L 18.890625 -26.359375 L 18.890625 -21.171875 L 40.640625 -21.171875 L 40.640625 -14.046875 L 18.890625 -14.046875 L 18.890625 -8.890625 L 46.546875 -8.890625 Z M 46.546875 0.171875 "/></g></g></g><g fill="#7ed957" fill-opacity="1"><g transform="translate(157.253156, 200.473265)"><g><path d="M 51.78125 -0.171875 C 51.238281 -1.597656 50.890625 -3.046875 50.734375 -4.515625 C 50.566406 -6.109375 50.144531 -7.5625 49.46875 -8.875 C 48.789062 -10.195312 47.171875 -11.390625 44.609375 -12.453125 C 47.242188 -13.535156 49.113281 -14.90625 50.21875 -16.5625 C 51.332031 -18.21875 51.890625 -20.265625 51.890625 -22.703125 C 51.890625 -25.617188 51.085938 -27.984375 49.484375 -29.796875 C 47.890625 -31.617188 45.335938 -32.953125 41.828125 -33.796875 C 38.328125 -34.648438 33.710938 -35.078125 27.984375 -35.078125 L 4.109375 -35.078125 L 4.109375 -0.171875 L 18.546875 -0.171875 L 18.546875 -10.34375 L 28.328125 -10.34375 C 30.566406 -10.289062 32.265625 -9.914062 33.421875 -9.21875 C 34.578125 -8.53125 35.390625 -7.660156 35.859375 -6.609375 C 36.328125 -5.554688 36.675781 -4.492188 36.90625 -3.421875 C 37.144531 -2.078125 37.566406 -0.992188 38.171875 -0.171875 Z M 18.890625 -19.046875 L 27.171875 -19.0625 C 33.015625 -19.0625 36.234375 -19.835938 36.828125 -21.390625 C 37.003906 -21.816406 37.09375 -22.253906 37.09375 -22.703125 C 37.09375 -23.160156 37.003906 -23.601562 36.828125 -24.03125 C 36.660156 -24.457031 36.265625 -24.84375 35.640625 -25.1875 C 35.023438 -25.539062 34.046875 -25.820312 32.703125 -26.03125 C 31.359375 -26.25 29.515625 -26.359375 27.171875 -26.359375 L 18.890625 -26.359375 Z M 52.296875 0.171875 L 37.984375 0.171875 C 37.296875 -0.773438 36.820312 -1.953125 36.5625 -3.359375 C 36.34375 -4.410156 36.007812 -5.4375 35.5625 -6.4375 C 35.113281 -7.4375 34.335938 -8.269531 33.234375 -8.9375 C 32.140625 -9.613281 30.503906 -9.96875 28.328125 -10 L 18.890625 -10 L 18.890625 0.171875 L 3.765625 0.171875 L 3.765625 -35.421875 L 27.984375 -35.421875 C 33.742188 -35.421875 38.398438 -34.988281 41.953125 -34.125 C 45.515625 -33.257812 48.117188 -31.882812 49.765625 -30 C 51.410156 -28.125 52.234375 -25.691406 52.234375 -22.703125 C 52.234375 -17.691406 49.992188 -14.273438 45.515625 -12.453125 C 47.628906 -11.566406 49.039062 -10.4375 49.75 -9.0625 C 50.46875 -7.6875 50.910156 -6.179688 51.078125 -4.546875 C 51.234375 -3.109375 51.640625 -1.535156 52.296875 0.171875 Z M 18.546875 -18.6875 L 18.546875 -26.703125 L 27.171875 -26.703125 C 29.523438 -26.703125 31.390625 -26.59375 32.765625 -26.375 C 34.140625 -26.15625 35.164062 -25.851562 35.84375 -25.46875 C 36.53125 -25.09375 36.96875 -24.664062 37.15625 -24.1875 C 37.34375 -23.707031 37.4375 -23.210938 37.4375 -22.703125 C 37.4375 -22.210938 37.34375 -21.722656 37.15625 -21.234375 C 36.96875 -20.753906 36.53125 -20.328125 35.84375 -19.953125 C 35.164062 -19.578125 34.140625 -19.273438 32.765625 -19.046875 C 31.390625 -18.828125 29.523438 -18.71875 27.171875 -18.71875 Z M 18.546875 -18.6875 "/></g></g></g><g fill="#7ed957" fill-opacity="1"><g transform="translate(211.270757, 200.473265)"><g><path d="M 61.296875 -0.171875 L 36.265625 -18 L 61.265625 -35.078125 L 42.53125 -35.078125 L 18.546875 -18.59375 L 18.546875 -35.078125 L 4.109375 -35.078125 L 4.109375 -0.171875 L 18.546875 -0.171875 L 18.546875 -5.921875 L 27.484375 -12.015625 L 42.671875 -0.171875 Z M 62.34375 0.171875 L 42.546875 0.171875 L 27.46875 -11.59375 L 18.890625 -5.75 L 18.890625 0.171875 L 3.765625 0.171875 L 3.765625 -35.421875 L 18.890625 -35.421875 L 18.890625 -19.265625 L 42.40625 -35.421875 L 62.375 -35.421875 L 36.875 -18 Z M 62.34375 0.171875 "/></g></g></g><g fill="#7ed957" fill-opacity="1"><g transform="translate(273.443809, 200.473265)"><g><path d="M 23.296875 0.59375 C 28.035156 0.59375 31.847656 0.0859375 34.734375 -0.921875 C 37.628906 -1.941406 39.832031 -3.335938 41.34375 -5.109375 C 42.851562 -6.878906 43.863281 -8.921875 44.375 -11.234375 C 44.445312 -11.734375 44.484375 -12.222656 44.484375 -12.703125 C 44.484375 -14.335938 44.023438 -15.6875 43.109375 -16.75 C 41.921875 -18.164062 40.253906 -19.234375 38.109375 -19.953125 C 35.972656 -20.671875 33.671875 -21.175781 31.203125 -21.46875 C 28.742188 -21.757812 26.421875 -21.972656 24.234375 -22.109375 C 22.046875 -22.242188 20.363281 -22.40625 19.1875 -22.59375 C 18.019531 -22.789062 17.4375 -23.140625 17.4375 -23.640625 C 17.4375 -23.785156 17.488281 -23.9375 17.59375 -24.09375 C 18.789062 -25.8125 20.691406 -26.671875 23.296875 -26.671875 C 25.890625 -26.671875 27.769531 -25.835938 28.9375 -24.171875 L 44.3125 -24.171875 C 43.84375 -26.347656 42.851562 -28.320312 41.34375 -30.09375 C 39.832031 -31.863281 37.628906 -33.253906 34.734375 -34.265625 C 31.847656 -35.285156 28.035156 -35.796875 23.296875 -35.796875 C 18.546875 -35.796875 14.722656 -35.285156 11.828125 -34.265625 C 8.941406 -33.253906 6.742188 -31.863281 5.234375 -30.09375 C 3.722656 -28.320312 2.71875 -26.285156 2.21875 -23.984375 C 2.164062 -23.554688 2.140625 -23.144531 2.140625 -22.75 C 2.140625 -18.175781 5.6875 -15.34375 12.78125 -14.25 C 16 -13.757812 19.066406 -13.445312 21.984375 -13.3125 C 24.328125 -13.195312 26.109375 -13.023438 27.328125 -12.796875 C 28.546875 -12.566406 29.15625 -12.179688 29.15625 -11.640625 C 29.15625 -11.484375 29.097656 -11.304688 28.984375 -11.109375 C 27.785156 -9.390625 25.890625 -8.53125 23.296875 -8.53125 C 20.691406 -8.53125 18.804688 -9.363281 17.640625 -11.03125 L 2.265625 -11.03125 C 2.734375 -8.851562 3.722656 -6.878906 5.234375 -5.109375 C 6.742188 -3.335938 8.941406 -1.941406 11.828125 -0.921875 C 14.722656 0.0859375 18.546875 0.59375 23.296875 0.59375 Z M 23.296875 0.9375 C 18.503906 0.9375 14.640625 0.421875 11.703125 -0.609375 C 8.765625 -1.640625 6.523438 -3.0625 4.984375 -4.875 C 3.441406 -6.695312 2.382812 -8.863281 1.8125 -11.375 L 17.828125 -11.375 C 18.992188 -9.707031 20.816406 -8.875 23.296875 -8.875 C 25.765625 -8.875 27.5625 -9.679688 28.6875 -11.296875 C 28.769531 -11.429688 28.8125 -11.546875 28.8125 -11.640625 C 28.8125 -12.296875 26.535156 -12.738281 21.984375 -12.96875 C 19.035156 -13.101562 15.945312 -13.414062 12.71875 -13.90625 C 5.4375 -15.03125 1.796875 -17.976562 1.796875 -22.75 C 1.796875 -23.15625 1.816406 -23.582031 1.859375 -24.03125 C 2.398438 -26.40625 3.441406 -28.5 4.984375 -30.3125 C 6.523438 -32.132812 8.765625 -33.5625 11.703125 -34.59375 C 14.640625 -35.625 18.503906 -36.140625 23.296875 -36.140625 C 28.078125 -36.140625 31.9375 -35.625 34.875 -34.59375 C 37.8125 -33.5625 40.050781 -32.132812 41.59375 -30.3125 C 43.132812 -28.5 44.191406 -26.335938 44.765625 -23.828125 L 28.75 -23.828125 C 27.582031 -25.492188 25.765625 -26.328125 23.296875 -26.328125 C 20.816406 -26.328125 19.015625 -25.519531 17.890625 -23.90625 C 17.816406 -23.800781 17.78125 -23.710938 17.78125 -23.640625 C 17.78125 -23.335938 18.316406 -23.097656 19.390625 -22.921875 C 20.460938 -22.742188 22.09375 -22.585938 24.28125 -22.453125 C 26.46875 -22.316406 28.800781 -22.101562 31.28125 -21.8125 C 33.757812 -21.519531 36.082031 -21.003906 38.25 -20.265625 C 40.425781 -19.523438 42.128906 -18.425781 43.359375 -16.96875 C 44.335938 -15.84375 44.828125 -14.421875 44.828125 -12.703125 C 44.828125 -12.210938 44.789062 -11.703125 44.71875 -11.171875 C 44.175781 -8.796875 43.132812 -6.695312 41.59375 -4.875 C 40.050781 -3.0625 37.8125 -1.640625 34.875 -0.609375 C 31.9375 0.421875 28.078125 0.9375 23.296875 0.9375 Z M 23.296875 0.9375 "/></g></g></g></svg>